<?xml version="1.0" encoding="UTF-8"?>
<!DOCTYPE svg PUBLIC "-//W3C//DTD SVG 1.1//EN" "http://www.w3.org/Graphics/SVG/1.1/DTD/svg11.dtd">
<!-- Creator: CorelDRAW 2021 (64-Bit) -->
<svg xmlns="http://www.w3.org/2000/svg" xml:space="preserve" width="591px" height="591px" version="1.1" style="shape-rendering:geometricPrecision; text-rendering:geometricPrecision; image-rendering:optimizeQuality; fill-rule:evenodd; clip-rule:evenodd"
viewBox="0 0 591 591"
 xmlns:xlink="http://www.w3.org/1999/xlink"
 xmlns:xodm="http://www.corel.com/coreldraw/odm/2003">
 <defs>
  <style type="text/css">
   <![CDATA[
    .fil12 {fill:#4D1402}
    .fil2 {fill:#874A25}
    .fil11 {fill:#D77735}
    .fil8 {fill:#D86D27}
    .fil10 {fill:#DB732B}
    .fil7 {fill:#E67826}
    .fil3 {fill:#ED8423}
    .fil4 {fill:#EE8521}
    .fil9 {fill:#F49B3B}
    .fil0 {fill:#F79A32}
    .fil6 {fill:#FBECDB}
    .fil5 {fill:#FEEACB}
    .fil1 {fill:#FEEED9}
   ]]>
  </style>
 </defs>
 <g id="Слой_x0020_1">
  <metadata id="CorelCorpID_0Corel-Layer"/>
  <g id="_2690369957504">
   <path class="fil0" d="M125.84 249.62c-4.94,-17.31 17.93,-27.83 16.61,2.76 -8.61,1.05 -9.38,1.21 -16.61,-2.76zm115.33 -22.93c-1.32,6.97 1.28,0.56 -3.88,9.81 -10.56,-0.23 -20.13,-7.47 -24.23,-14.5 -4.58,-7.86 -7.24,-17.83 -12.01,-26.74l-1.29 -13.09c-44.98,1.82 -61.89,25.24 -82.38,51.08 -16.94,21.37 -39.85,12.63 -53.2,9.71 -8.24,-1.8 -2.65,-2.58 -8.53,2.1 8.53,0.88 13,4.27 20.2,7.71 49.95,23.86 126.91,15.69 143.93,47.06 -20.87,8.93 -50.39,16.01 -61.46,50.95 -2.72,8.58 -6.23,63.71 -3.51,77.78 1.04,5.36 5.21,16.3 4.56,17.98 3.13,4.32 -0.67,0.6 3.37,3.82 3.36,2.7 2.88,1.9 5.4,3.11l-3.61 -10.43 -0.93 -6.78c6.53,2.12 17.26,4.36 29.05,-0.46 7.5,-3.06 10.28,-7.32 13.52,-13.34l4.36 -7.64c6.96,15.77 30.46,20.71 48.56,18.23 21.58,-2.95 35.8,-18.35 46.91,-19.91 9.32,1.64 22.09,42.63 62.32,24.05 1.56,-9.41 1.92,-7.5 -1.52,-16.27 -2.09,-26.54 -19.09,-41.52 -47.18,-44.6 -22.26,-2.45 -51.29,0.88 -70.69,-7.51l-8.59 -3.89c-17.52,14.16 -46.66,-22.94 -33.19,-42 0.38,-0.54 5.35,-5.83 5.95,-6.54 12.13,-14.15 42.52,-7.06 55.02,-3.11l4.83 -0.66c7.44,-30.58 4.25,-43.93 -3.85,-71.31l-4.56 11.41c0.93,-55.93 -22.14,-88.63 -25.42,-137.4 -3,17.53 -0.19,39.35 2.27,56.46 5.76,40.16 -1.48,39.33 -0.22,54.92z"/>
   <path class="fil0" d="M414.29 326.37c-3.74,49.32 -51.52,55.12 -59.38,61.66 6.06,5.26 3.98,8.12 14.66,9.36 5.99,0.7 19.25,-0.36 25.69,-0.85 15.56,-1.19 28.4,-3.62 43.23,-6.9l-3.52 -1.15c-0.44,-0.05 -1.25,-0.29 -1.79,-0.32l-10.94 1.84c-7.01,1.43 -11.43,0.83 -17.18,2.03 -6.42,1.35 -13.52,6.4 -27.16,3.69 -12.67,-2.52 -4.82,-0.11 -7.57,-3.25 8,-3.69 20.65,-3.2 29.86,-6.24 31.38,-10.34 45.92,-19.74 68.77,-45.6 19.26,-21.79 43.34,-57.08 47.79,-85.4l4.61 -16.87 6.38 11.01c-6.03,-48.6 -25.34,-53.84 -49.21,-72.17 -8.6,-6.59 -12.66,-10.8 -15.08,-24.28 -24.52,-0.16 -43.32,0.37 -67.05,-4.15 -10.43,-1.98 -19.11,-4.82 -28.77,-7.64 -10.57,-3.08 -15.49,-7.19 -25.53,-9.69 8.42,17.56 11.9,11.75 20.02,16.56 -0.76,5.36 -3,8.08 -0.64,13.76 2.72,6.56 20.64,21.42 26.5,25.33 37.21,24.82 58.72,24.62 45.45,90.53 -6.58,32.67 -18.59,35.65 -19.14,48.74z"/>
   <path class="fil1" d="M331.33 122.9c3.39,6.13 5.31,4.71 10.77,8.55 10.04,2.5 14.96,6.61 25.53,9.69 9.66,2.82 18.34,5.66 28.77,7.64 23.73,4.52 42.53,3.99 67.05,4.15 -1.38,-27.07 10.73,-41.66 36.84,-37.38 9.95,1.63 18.64,6.1 25.33,12.42 9.7,9.16 9.06,16.41 15.64,24.75 7.22,-100.34 -118.15,-124.16 -169.28,-87.33 -17.44,12.56 -35.01,33.76 -40.65,57.51z"/>
   <path class="fil2" d="M174.89 466.28c3.52,8.27 6.27,21.5 5.4,31.62l-15.45 -0.99 -12.33 -48.38c9.21,2.97 18.54,8.74 22.38,17.75zm93.23 -153.01c-14.72,0.79 -29.22,3.31 -34.55,14.94 -2.77,6.06 -2.81,13.26 -1.31,20.97 1.57,8.04 4.81,10.77 8.08,15.74l8.59 3.89c19.4,8.39 48.43,5.06 70.69,7.51 28.09,3.08 45.09,18.06 47.18,44.6 6.12,6.11 6.56,32.69 11.97,43.05 6.61,12.66 16.36,30.68 -6.95,31.68 -6.12,-5.52 -8.58,-11.39 -15.77,-17.75 -5.9,-5.21 -11.23,-8.73 -19.16,-12.69 -28.16,-14.04 -28.43,-36.31 -30.72,-27.52l11.76 19.26c-37.71,4.83 -57.02,16.6 -98.98,10.81 -1.04,-1.72 -1.46,-3.08 -1.83,-3.7 -2.25,-3.71 -0.87,-1.81 -3.44,-4.62 1.27,11 -3.19,29.15 -7.95,38.39l-19.6 -0.79c-4.41,-9.95 -4.89,-19.97 -8.39,-29.86l-8.68 -18.96c-3.65,-5.59 -0.9,-2.09 -4.53,-5.18l3.61 10.43c-2.52,-1.21 -2.04,-0.41 -5.4,-3.11 -4.04,-3.22 -0.24,0.5 -3.37,-3.82 -10.63,-7.8 -10.36,-10.03 -19.59,-19.71 -10.11,-14.76 -19.88,-31.78 -19.7,-55.9 0.25,-32.95 16.64,-42.27 22.39,-50.94 -5.85,-20.28 -20.35,-22.58 -44.74,-20.68 2.34,-4.07 3.15,-6.85 8.41,-7.48 13.1,-1.57 -8.9,5.25 6.26,0.28 9.55,-3.14 15.54,-4.45 25.87,-6.94l6.53 6.32c-2.6,-19.21 -14.82,-6.13 -34.18,-6.78 -19.58,-0.66 -25.52,-7.29 -38.16,-9.28l-23.31 -22.98c1.81,-2.02 3.86,-4.11 6.5,-7.39 5.88,-4.68 0.29,-3.9 8.53,-2.1 13.35,2.92 36.26,11.66 53.2,-9.71 20.49,-25.84 37.4,-49.26 82.38,-51.08l1.29 13.09c0.48,-0.22 9.94,-78.82 34.6,-97.35 -0.9,22.28 0,46.75 2.12,67.29 1.13,10.95 2.47,20.85 2.54,31.61 0.04,5.75 -0.33,10.89 -0.77,16.58l1.63 13.3c-1.26,-15.59 5.98,-14.76 0.22,-54.92 -2.46,-17.11 -5.27,-38.93 -2.27,-56.46 3.28,48.77 26.35,81.47 25.42,137.4l4.56 -11.41c8.1,27.38 11.29,40.73 3.85,71.31l-4.83 0.66zm195.33 -160.34c2.42,13.48 6.48,17.69 15.08,24.28 23.87,18.33 43.18,23.57 49.21,72.17 7.06,32.05 -4.33,71.2 -20.51,93.59 -14.99,20.74 -34.62,38.7 -68.74,46.67 -14.83,3.28 -27.67,5.71 -43.23,6.9 -6.44,0.49 -19.7,1.55 -25.69,0.85 -10.68,-1.24 -8.6,-4.1 -14.66,-9.36 7.86,-6.54 55.64,-12.34 59.38,-61.66 -0.34,-19.19 -11.99,-40.57 -25.44,-44.29 -2.09,-5.29 -0.14,-1.53 -3.69,-5.2 -1.75,-1.82 -0.94,-0.67 -3.53,-2.89 -14.5,-12.45 -36,-39.18 -42.99,-56.14 -11.95,-29.04 -17.52,-61.27 -7.31,-94.95 5.64,-23.75 23.21,-44.95 40.65,-57.51 51.13,-36.83 176.5,-13.01 169.28,87.33 -6.58,-8.34 -5.94,-15.59 -15.64,-24.75 -6.69,-6.32 -15.38,-10.79 -25.33,-12.42 -26.11,-4.28 -38.22,10.31 -36.84,37.38zm-270.07 -21.78c7.87,-7.14 16.37,-37.08 28.84,-42.14 2.7,22.2 -5.38,26.87 -11.17,44.76 -4.2,13.01 -4.98,33.82 -11.21,44.07l-15.89 0.97c1.39,-13.95 9.63,-39.82 9.43,-47.66zm161.19 -58.5c-3.57,8.28 -9.57,12.06 -15.55,21.31 -4.28,6.64 -8.22,13.5 -11.39,22.88 -6.05,17.92 -8.42,39.88 -5.03,60.01 1.89,44.24 39.34,93.9 66.25,105.23 2.13,5.77 5.2,7.26 9.13,11.65 25.04,28.01 11.33,67.94 -29.58,84.34 -17.16,6.87 -15.2,5.24 -28.43,-0.81 -26.9,-12.31 -88.54,1.15 -96.92,-18.33 -3.8,-2.77 -0.96,0.1 -3.89,-3.62 -4.99,-6.34 -6.82,-22.64 -0.05,-30.02 8.13,-8.87 25.55,-5.09 35.97,-8.58 15.17,-31.74 0.59,-64.4 -6.46,-86.67 -2.37,-7.49 -4.06,-19.58 -5.83,-28.16 -3.73,-18.11 -8.72,-36.41 -13.01,-54.8 -3.07,-13.18 -6.05,-51.79 -9.6,-59.03 -6.19,2.11 -9.59,7.01 -14.19,12.64l3.18 -24.87c-11.12,4.43 -35.02,38.55 -35.79,55.33 -2.44,2.05 0.3,-2.69 -3.65,4.76 -0.12,0.22 -2.13,5.74 -2.28,6.23l-7.51 37.16c-36.43,13.02 -43.99,22.75 -63.21,47 -30.96,39.08 -60.06,-0.84 -77.97,3.01l-0.81 9.99c3,6.12 3.72,8.96 7.79,13.85 2.56,3.07 4.03,3.93 6.28,6.58 4.37,5.15 2.74,2.04 4.44,7.44 7.76,3.36 8,6.97 16,8.26l1.94 2.3c7.02,6.25 18.31,9.39 27.54,10.56 -4.41,3.54 -8.67,7.34 -9.33,13.7 21.58,2.68 34.9,-1.74 45.65,15.88 -3,6.78 -9.24,10.03 -14.32,17.63 -21.93,32.78 -1.43,72.54 16.94,98.63 5.22,7.43 6.51,15.31 9.51,24.39 5.64,17.06 12.43,36.54 8.24,56.82l0.96 9.69c9.74,-0.08 11.82,0.35 16.26,-6.23l2.66 2.54c4.54,3.51 -2.3,0.08 3.9,2.82 5.73,2.53 10.96,-0.83 15.13,-4.57l6.82 -6.88c4.89,-15.01 9.99,-22.01 12.88,-41.26 26.99,4.64 36.39,-0.19 60.61,-2.33 8.51,-3 10.29,-5.13 21.55,-7.39 8.56,-1.71 17.22,-4.28 24.08,0.12 1.08,6 -0.27,1.35 -4.75,8.74 -13.6,22.46 7.85,23.9 -25.58,26.11 -0.73,-5.6 -0.53,-13.86 -5.6,-17.2 -4.05,-2.67 0.78,-4.98 -3.26,-0.33 9.18,21.9 4.46,22.19 -3.24,39.53 1.76,4.96 -0.01,4.87 5.99,6.25 10.5,2.43 19.16,-10.17 25.22,-16.87 3.86,-15.46 7.01,-32.94 17.09,-41.38 15.77,5.45 36.16,20.64 37.95,37.43 0.31,0.52 0.57,0.77 0.66,1.69l3.28 16.58c7.47,1.69 10.13,-1.1 16.4,-4.75 0.73,-11.38 4.01,-19.84 2.51,-33.77 -1.26,-11.69 -6.54,-14.61 -10.32,-25.28 -3.31,-9.36 -11.72,-47.44 -13.44,-56.88 52.16,-1.47 94.19,-7.27 126,-35.41 26.83,-23.73 46.38,-66.31 39.15,-118.66 -1.61,-11.66 -4.51,-22.79 -8.54,-31.89 -15.45,-34.86 -51.89,-36.82 -56.85,-64.39 -4.45,-24.78 19.43,-40.63 42.81,-30.12 23.17,10.41 25.41,27.52 30.9,41.58l2.55 5.08c20.47,-119.96 -110.95,-138.51 -162.64,-111.72 -13.02,6.76 -15.14,11.11 -22.5,15.34l-2.7 1.12z"/>
   <path class="fil3" d="M388.85 282.08c13.45,3.72 25.1,25.1 25.44,44.29 0.55,-13.09 12.56,-16.07 19.14,-48.74 13.27,-65.91 -8.24,-65.71 -45.45,-90.53 -5.86,-3.91 -23.78,-18.77 -26.5,-25.33 -2.36,-5.68 -0.12,-8.4 0.64,-13.76 -8.12,-4.81 -11.6,1 -20.02,-16.56 -5.46,-3.84 -7.38,-2.42 -10.77,-8.55 -10.21,33.68 -4.64,65.91 7.31,94.95 6.99,16.96 28.49,43.69 42.99,56.14 2.59,2.22 1.78,1.07 3.53,2.89 3.55,3.67 1.6,-0.09 3.69,5.2z"/>
   <path class="fil3" d="M164.53 443.04c3.63,3.09 0.88,-0.41 4.53,5.18l8.68 18.96c3.5,9.89 3.98,19.91 8.39,29.86l19.6 0.79c4.76,-9.24 9.22,-27.39 7.95,-38.39l-1.09 -22.66c0.77,0.39 1.49,0.96 2.16,1.43 0.64,0.46 1.3,0.87 2.04,1.41l8.3 6.43c16.07,9.92 72.8,13.53 81.08,-8.36 2.29,-8.79 2.56,13.48 30.72,27.52 7.93,3.96 13.26,7.48 19.16,12.69 7.19,6.36 9.65,12.23 15.77,17.75 23.31,-1 13.56,-19.02 6.95,-31.68 -5.41,-10.36 -5.85,-36.94 -11.97,-43.05 3.44,8.77 3.08,6.86 1.52,16.27 -40.23,18.58 -53,-22.41 -62.32,-24.05 -11.11,1.56 -25.33,16.96 -46.91,19.91 -18.1,2.48 -41.6,-2.46 -48.56,-18.23l-4.36 7.64c-3.24,6.02 -6.02,10.28 -13.52,13.34 -11.79,4.82 -22.52,2.58 -29.05,0.46l0.93 6.78z"/>
   <path class="fil4" d="M438.49 389.64c34.12,-7.97 53.75,-25.93 68.74,-46.67 16.18,-22.39 27.57,-61.54 20.51,-93.59l-6.38 -11.01 -4.61 16.87c-4.45,28.32 -28.53,63.61 -47.79,85.4 -22.85,25.86 -37.39,35.26 -68.77,45.6 -9.21,3.04 -21.86,2.55 -29.86,6.24 2.75,3.14 -5.1,0.73 7.57,3.25 13.64,2.71 20.74,-2.34 27.16,-3.69 5.75,-1.2 10.17,-0.6 17.18,-2.03l10.94 -1.84c0.54,0.03 1.35,0.27 1.79,0.32l3.52 1.15z"/>
   <path class="fil5" d="M72.46 275.43c12.64,1.99 18.58,8.62 38.16,9.28 19.36,0.65 31.58,-12.43 34.18,6.78 7.23,-6.87 11.19,-4.82 16.28,-1.36l9.51 7.83c5.45,3.32 5.8,2.16 13.2,1.96l-9.43 11.57c-10.73,-3.91 -17.31,-6.44 -21.22,-19.17 1.05,2.48 6.57,-4.47 -1.03,1.9 -6.66,5.59 1.55,0.07 -7.13,2.66 -6.47,1.93 0.86,-8.48 -3.14,1.21 28.85,8.17 3.28,5.58 28.29,18.65 0.61,0.32 1.48,0.63 2.1,1.13 -11.45,16.84 -18.48,1.8 -20.32,48.76 -1.26,32.28 -2.82,27.26 -4.22,47.99 -0.94,13.84 0.97,10.01 -7.91,12.21 9.23,9.68 8.96,11.91 19.59,19.71 0.65,-1.68 -3.52,-12.62 -4.56,-17.98 -2.72,-14.07 0.79,-69.2 3.51,-77.78 11.07,-34.94 40.59,-42.02 61.46,-50.95 -17.02,-31.37 -93.98,-23.2 -143.93,-47.06 -7.2,-3.44 -11.67,-6.83 -20.2,-7.71 -2.64,3.28 -4.69,5.37 -6.5,7.39l23.31 22.98z"/>
   <path class="fil6" d="M139.78 426.83c8.88,-2.2 6.97,1.63 7.91,-12.21 1.4,-20.73 2.96,-15.71 4.22,-47.99 1.84,-46.96 8.87,-31.92 20.32,-48.76 -0.62,-0.5 -1.49,-0.81 -2.1,-1.13 -25.01,-13.07 0.56,-10.48 -28.29,-18.65 4,-9.69 -3.33,0.72 3.14,-1.21 8.68,-2.59 0.47,2.93 7.13,-2.66 7.6,-6.37 2.08,0.58 1.03,-1.9 3.91,12.73 10.49,15.26 21.22,19.17l9.43 -11.57c-7.4,0.2 -7.75,1.36 -13.2,-1.96l-9.51 -7.83c-5.09,-3.46 -9.05,-5.51 -16.28,1.36l-6.53 -6.32c-10.33,2.49 -16.32,3.8 -25.87,6.94 -15.16,4.97 6.84,-1.85 -6.26,-0.28 -5.26,0.63 -6.07,3.41 -8.41,7.48 24.39,-1.9 38.89,0.4 44.74,20.68 -5.75,8.67 -22.14,17.99 -22.39,50.94 -0.18,24.12 9.59,41.14 19.7,55.9z"/>
   <path class="fil7" d="M201.05 195.26c4.77,8.91 7.43,18.88 12.01,26.74 4.1,7.03 13.67,14.27 24.23,14.5 5.16,-9.25 2.56,-2.84 3.88,-9.81l-1.63 -13.3c0.44,-5.69 0.81,-10.83 0.77,-16.58 -0.07,-10.76 -1.41,-20.66 -2.54,-31.61 -2.12,-20.54 -3.02,-45.01 -2.12,-67.29 -24.66,18.53 -34.12,97.13 -34.6,97.35z"/>
   <path class="fil3" d="M240.34 364.92c-3.27,-4.97 -6.51,-7.7 -8.08,-15.74 -1.5,-7.71 -1.46,-14.91 1.31,-20.97 5.33,-11.63 19.83,-14.15 34.55,-14.94 -12.5,-3.95 -42.89,-11.04 -55.02,3.11 -0.6,0.71 -5.57,6 -5.95,6.54 -13.47,19.06 15.67,56.16 33.19,42z"/>
   <path class="fil8" d="M213.68 459.44c2.57,2.81 1.19,0.91 3.44,4.62 0.37,0.62 0.79,1.98 1.83,3.7 41.96,5.79 61.27,-5.98 98.98,-10.81l-11.76 -19.26c-8.28,21.89 -65.01,18.28 -81.08,8.36l-8.3 -6.43c-0.74,-0.54 -1.4,-0.95 -2.04,-1.41 -0.67,-0.47 -1.39,-1.04 -2.16,-1.43l1.09 22.66z"/>
   <path class="fil9" d="M193.38 131.15c0.2,7.84 -8.04,33.71 -9.43,47.66l15.89 -0.97c6.23,-10.25 7.01,-31.06 11.21,-44.07 5.79,-17.89 13.87,-22.56 11.17,-44.76 -12.47,5.06 -20.97,35 -28.84,42.14z"/>
   <path class="fil10" d="M277.85 469.12l6.44 10.05c4.04,-4.65 -0.79,-2.34 3.26,0.33 5.07,3.34 4.87,11.6 5.6,17.2 33.43,-2.21 11.98,-3.65 25.58,-26.11 4.48,-7.39 5.83,-2.74 4.75,-8.74 -6.86,-4.4 -15.52,-1.83 -24.08,-0.12 -11.26,2.26 -13.04,4.39 -21.55,7.39z"/>
   <path class="fil11" d="M164.84 496.91l15.45 0.99c0.87,-10.12 -1.88,-23.35 -5.4,-31.62 -3.84,-9.01 -13.17,-14.78 -22.38,-17.75l12.33 48.38z"/>
   <path class="fil12" d="M125.84 249.62c7.23,3.97 8,3.81 16.61,2.76 1.32,-30.59 -21.55,-20.07 -16.61,-2.76z"/>
  </g>
 </g>
</svg>
