<?xml version="1.0" encoding="UTF-8"?>
<!DOCTYPE svg PUBLIC "-//W3C//DTD SVG 1.1//EN" "http://www.w3.org/Graphics/SVG/1.1/DTD/svg11.dtd">
<!-- Creator: CorelDRAW -->
<svg xmlns="http://www.w3.org/2000/svg" xml:space="preserve" width="8.1885mm" height="5.1703mm" version="1.1" style="shape-rendering:geometricPrecision; text-rendering:geometricPrecision; image-rendering:optimizeQuality; fill-rule:evenodd; clip-rule:evenodd"
viewBox="0 0 35.15 22.2"
 xmlns:xlink="http://www.w3.org/1999/xlink"
 xmlns:xodm="http://www.corel.com/coreldraw/odm/2003">
 <defs>
  <style type="text/css">
   <![CDATA[
    .fil0 {fill:#FEFEFE}
   ]]>
  </style>
 </defs>
 <g id="Layer_x0020_1">
  <metadata id="CorelCorpID_0Corel-Layer"/>
  <path class="fil0" d="M17.74 19.49c0.5,0.05 0.65,-0.25 1.43,-0.63 0.22,-0.11 0.48,-0.23 0.7,-0.35 0.23,-0.13 0.38,-0.25 0.69,-0.37 1.03,-0.41 1.94,-0.91 3.04,-1.18 0.3,-0.07 0.55,-0.1 0.83,-0.17 0.64,-0.16 2.1,-0.45 2.71,-0.45 0.47,-0 0.45,-0.11 0.92,-0.11 0.62,-0 1.46,-0.04 2.01,0.08 0.27,0.06 0.71,0.05 0.99,0l0.01 -0.37c-0.08,-0.17 -0.12,-0.47 -0.16,-0.68 -0.07,-0.31 -0.1,-0.46 -0.14,-0.77 -0.05,-0.41 -0.36,-1.16 -0.27,-1.52 -0.21,-0.21 -0.27,-0.81 -0.33,-1.11 -0.07,-0.37 -0.19,-0.78 -0.27,-1.14 -0.16,-0.71 -0.39,-1.48 -0.5,-2.11l-0.97 -4.7c-0.05,-0.17 -0.13,-0.62 -0.21,-0.92 -0.09,-0.36 -0.16,-0.6 -0.22,-0.97 -0.08,-0.44 -0.43,-1.53 -0.37,-1.89 -0.58,-0.22 -2.83,-0.09 -3.65,-0.09 -1.07,0 -0.72,-0.05 -1.71,0.11 -0.27,0.04 -0.54,0.1 -0.79,0.16 -0.89,0.22 -2.49,0.92 -3.22,1.38 -0.5,0.32 -0.49,0.77 -0.48,1.36 0.01,1.44 0.07,15.8 -0.02,16.42zm-12.38 -15.86l0.02 0.01 0.28 -1.1c-0.04,-0.02 -0.06,-0.05 -0.07,-0.04 -0.01,0.01 -0.04,-0.02 -0.05,-0.03 -0.29,-0.17 -0.21,-0.12 -0.45,-0.14 -2.28,-0.25 -1.61,-1 -2.16,1.56 -0.19,0.37 -0.54,3.1 -0.69,3.73 -0.13,0.56 -0.23,1.23 -0.35,1.8 -0.04,0.2 -0.3,1.68 -0.4,1.8 -0.01,0.17 -0.07,0.89 -0.18,1.02 -0.15,1.2 -0.67,2.74 -0.83,4.35 -0.08,0.81 -0.59,1.73 -0.45,2.58 0.19,-0.07 3.64,0.61 4.46,0.75 0.18,0.03 0.32,0.08 0.58,0.13 0.18,0.03 0.49,0.07 0.7,0.11l1.82 0.39c0.44,0.08 2.01,0.22 2.49,0.41 0.02,0.01 0.04,0.05 0.05,0.03 0.01,-0.02 0.04,0.02 0.05,0.04l-0.03 -0.04c0.33,0.04 0.53,0.08 0.81,0.11l4.28 0.8c0.14,0.03 0.25,0.06 0.36,0.08 0.29,0.07 0.46,0.11 0.76,0.15 0.58,0.08 1.07,0.08 1.72,0.08 0.2,0 0.25,-0 0.43,-0.04l4.26 -0.8c1.52,-0.39 4.79,-0.74 6.2,-1.12 0.5,-0.13 1.02,-0.18 1.54,-0.26l1.53 -0.3c0.67,-0.15 2.47,-0.42 2.97,-0.6l0.1 -0.04c0.08,-0.71 -0.04,-0.6 -0.16,-1.09 -0.08,-0.33 -0.11,-0.76 -0.19,-1.07 -0.19,-0.76 -0.23,-1.4 -0.4,-2.18l-2.08 -10.6c-0.1,-0.5 -0.3,-1.69 -0.49,-2.07l-0.81 0.16c-0.46,0.12 -0.94,0.11 -1.26,0.27 -0.02,0.01 -0.03,0.02 -0.05,0.03l0.1 1.35c0.12,0.07 0.2,0.71 0.2,0.84 0.28,0.35 0.6,2.65 0.74,3.2l0.04 0.44c0.11,0.11 0.15,0.4 0.2,0.68 0.13,0.71 0.4,1.18 0.51,2.09l0.09 0.21c0.01,0.03 0.06,0.23 0.06,0.25 0.03,0.18 0.07,0.38 0.1,0.51 0.08,0.34 0.14,0.67 0.22,0.97 0.12,0.45 0.41,1.55 0.43,1.97 0.01,0.01 0.02,0.04 0.02,0.05 0,0.01 0.02,0.03 0.02,0.05l0.24 1.16c0.06,0.36 0.2,0.82 0.24,1.17 -0.41,0.02 -0.62,-0.11 -1.02,-0.1 -0.48,0 -0.59,-0.1 -1.06,-0.09 -0.38,0 -0.75,-0 -1.13,0l-4.81 0.8c-0.57,0.14 -1.25,0.27 -1.82,0.45l-0.55 0.17c-0.01,0.01 -0.03,0.01 -0.05,0.02l-1.07 0.38c-1.51,0.56 -1.65,0.75 -2.77,1.2 -0.52,0.2 -0.88,0.45 -1.29,0.33l-1.53 -0.7c-0.44,-0.23 -0.57,-0.22 -0.8,-0.34 -0.7,-0.34 -2.5,-1.01 -3.29,-1.17 -0.67,-0.14 -1.26,-0.34 -1.82,-0.44 -0.37,-0.07 -0.53,-0.14 -0.91,-0.22l-2.45 -0.38c-1.01,0.01 -1.59,-0.19 -2.74,-0.06 -0.14,0.12 -0.79,0.06 -0.94,0.04 -0.05,0.14 0.14,0.18 -0.58,0.13l0.24 -1.46c0.1,-0.5 0.21,-0.95 0.34,-1.46l0.51 -2.11c0.05,-0.2 0.05,-0.6 0.22,-0.68 -0.05,-0.25 0.46,-2.24 0.55,-2.34 0.03,-0.45 0.8,-4.31 1.04,-4.56 -0.04,-0.33 0.15,-0.79 0.17,-1.17zm1.62 -0.57c-0.15,0.58 -0.24,1.12 -0.38,1.72l-0.72 3.35c-0.06,0.28 -0.28,1.48 -0.41,1.69 -0,0.54 -0.48,2.22 -0.68,2.98l-0.16 0.81c-0,0.01 -0.01,0.04 -0.02,0.04l-0.04 0.08c-0.09,0.74 -0.49,1.84 -0.4,2.6l2.96 -0.09 4.51 0.74c0.93,0.26 2.13,0.74 2.94,1.14l2.37 1.26c0.16,0.1 0.12,0.15 0.39,0.09 0.08,-0.83 0.01,-13.33 0.01,-14.55 0,-3.31 0.28,-2.73 -1.06,-3.56 -0.49,-0.3 -1.35,-0.65 -1.89,-0.82 -1.35,-0.43 -1.82,-0.49 -3.12,-0.49 -1.16,0 -2.5,-0.06 -3.63,0.01 -0.15,0.42 -0.49,2.42 -0.69,3.01z"/>
 </g>
</svg>
