<?xml version="1.0" encoding="UTF-8"?>
<!DOCTYPE svg PUBLIC "-//W3C//DTD SVG 1.1//EN" "http://www.w3.org/Graphics/SVG/1.1/DTD/svg11.dtd">
<!-- Creator: CorelDRAW -->
<svg xmlns="http://www.w3.org/2000/svg" xml:space="preserve" width="6.2569mm" height="5.205mm" version="1.1" style="shape-rendering:geometricPrecision; text-rendering:geometricPrecision; image-rendering:optimizeQuality; fill-rule:evenodd; clip-rule:evenodd"
viewBox="0 0 19.57 16.28"
 xmlns:xlink="http://www.w3.org/1999/xlink"
 xmlns:xodm="http://www.corel.com/coreldraw/odm/2003">
 <defs>
  <style type="text/css">
   <![CDATA[
    .fil0 {fill:#FEFEFE}
   ]]>
  </style>
 </defs>
 <g id="Layer_x0020_1">
  <metadata id="CorelCorpID_0Corel-Layer"/>
  <g id="_2758684534288">
   <path class="fil0" d="M2.8 8.39l0 7.88 5.02 0 0 -5.21 3.89 0 0 5.21 5.02 0 0 -7.84c0,-0.06 -0.09,-0.1 -0.19,-0.17l-6.77 -4.89c-0.09,0.05 -0.14,0.1 -0.21,0.15 -0.08,0.05 -0.14,0.1 -0.23,0.16l-0.43 0.31c-0.15,0.11 -0.29,0.21 -0.43,0.31l-3.9 2.83c-0.15,0.11 -0.29,0.2 -0.43,0.31 -0.15,0.11 -0.28,0.21 -0.43,0.31l-0.66 0.47c-0.06,0.04 -0.16,0.14 -0.23,0.15z"/>
   <path class="fil0" d="M-0 7.09c0.04,0.06 0.09,0.11 0.13,0.17l0.67 0.92c0.08,0.1 0.17,0.29 0.27,0.37l1.21 -0.88c0.05,-0.04 0.09,-0.06 0.14,-0.1 0.09,-0.07 0.18,-0.13 0.27,-0.2 0.58,-0.44 1.19,-0.85 1.77,-1.28l0.41 -0.3c0.65,-0.44 1.27,-0.93 1.91,-1.38 0.09,-0.06 0.18,-0.13 0.27,-0.2l2.72 -1.98c0.09,0.06 0.18,0.13 0.27,0.2l2.45 1.78c0.65,0.45 1.27,0.93 1.91,1.38l0.82 0.59c0.09,0.07 0.18,0.13 0.27,0.2l1.91 1.38c0.37,0.26 0.73,0.55 1.1,0.8 0.12,-0.09 0.43,-0.58 0.54,-0.72 0.09,-0.11 0.51,-0.66 0.53,-0.75 -0.11,-0.03 -0.62,-0.43 -0.72,-0.5l-1.06 -0.77c-0.13,-0.09 -0.24,-0.17 -0.36,-0.26l-0.53 -0.39c-0.05,-0.03 -0.17,-0.1 -0.17,-0.15l0 -5 -2.41 0 0 3.27c-0.07,-0.02 -0.1,-0.05 -0.15,-0.09 -0.05,-0.04 -0.09,-0.06 -0.14,-0.1 -0.1,-0.08 -0.18,-0.13 -0.28,-0.21 -0.51,-0.39 -1.05,-0.74 -1.56,-1.13l-1.85 -1.34c-0.1,-0.07 -0.18,-0.14 -0.28,-0.21l-0.29 -0.2c-0.17,0.09 -2.25,1.62 -2.44,1.77l-7.32 5.32z"/>
  </g>
 </g>
</svg>
