<?xml version="1.0" encoding="UTF-8"?>
<!DOCTYPE svg PUBLIC "-//W3C//DTD SVG 1.1//EN" "http://www.w3.org/Graphics/SVG/1.1/DTD/svg11.dtd">
<!-- Creator: CorelDRAW -->
<svg xmlns="http://www.w3.org/2000/svg" xml:space="preserve" width="7.9795mm" height="6.8244mm" version="1.1" style="shape-rendering:geometricPrecision; text-rendering:geometricPrecision; image-rendering:optimizeQuality; fill-rule:evenodd; clip-rule:evenodd"
viewBox="0 0 28.48 24.36"
 xmlns:xlink="http://www.w3.org/1999/xlink"
 xmlns:xodm="http://www.corel.com/coreldraw/odm/2003">
 <defs>
  <style type="text/css">
   <![CDATA[
    .fil0 {fill:#FEFEFE}
   ]]>
  </style>
 </defs>
 <g id="Layer_x0020_1">
  <metadata id="CorelCorpID_0Corel-Layer"/>
  <g>
   <path class="fil0" d="M11.38 18.7l0.17 0.12c0.07,0.07 0.08,0.08 0.16,0.15 0.13,0.12 0.23,0.22 0.31,0.36 0.11,0.11 0.08,0.06 0.15,0.2l0.32 0.28c0.11,0.1 0.25,0.23 0.3,0.36 0.19,0.15 0.17,0.11 0.3,0.32l-1.8 0.02 -0 -1.92c0.11,0.07 0.06,0.04 0.1,0.11zm15.67 -10.36c-0.11,0.17 -0.22,0.2 -0.42,0.28 -0.03,0.06 -0,0.03 -0.1,0.1 -0.05,0.04 -0.07,0.05 -0.12,0.09 -0.12,0.09 -0.16,0.11 -0.3,0.15 -0.14,0.22 -0.27,0.23 -0.46,0.39 -0.23,0.19 -1.19,0.89 -1.27,1.1 -0.27,0.13 -0.29,0.26 -0.56,0.41l-0.08 0.09c-0.09,0.17 -0.48,0.5 -0.66,0.66 -0.08,0.07 0.01,0.01 -0.1,0.07l-0.02 0.03c-0.12,0.25 -0.35,0.34 -0.51,0.58 -0.28,0.27 -1.22,1.5 -1.3,1.78 -0.15,-0.06 -0.16,-0.06 -0.29,-0.14 -0.15,-0.09 -0.15,-0.07 -0.25,-0.19 -0.16,-0.02 -0.56,-0.27 -0.74,-0.38 -0.21,-0.12 -0.59,-0.26 -0.75,-0.36l-0.82 -0.27c-0.01,-0.02 -0.03,-0.01 -0.04,-0.02 -0.09,0.08 -0.1,-0.03 -0.02,0.15l0.34 0.49c0.08,0.11 0.14,0.21 0.23,0.34 0.14,0.22 0.14,0.17 0.17,0.33 0.16,0.12 0.1,0.06 0.18,0.26 0.12,0.08 0.25,0.34 0.28,0.49 0.18,0.11 0.18,0.22 0.28,0.4 0.04,0.08 0.08,0.13 0.12,0.19 0.12,0.2 0.06,0.06 0.08,0.22 0.15,0.14 0.36,0.56 0.45,0.77 0.1,0.13 0.44,0.76 0.58,1.08 0.03,0.06 0.05,0.11 0.06,0.14 0.07,-0.06 0.15,-0.17 0.22,-0.3 0.19,-0.32 0.38,-0.78 0.56,-0.96 0.07,-0.22 0.09,-0.18 0.19,-0.36 0.04,-0.07 0.04,-0.1 0.09,-0.17 0.09,-0.11 0.04,-0.05 0.12,-0.1 0.02,-0.15 -0.1,0.01 0.07,-0.15l1.07 -1.56c0.02,-0.17 0.07,-0.16 0.18,-0.32 0.1,-0.15 0.07,-0.15 0.21,-0.24 0.08,-0.17 0.04,-0.12 0.18,-0.21 0.03,-0.17 0.14,-0.24 0.25,-0.4l0.89 -1.11c0.03,-0.05 0.09,-0.14 0.11,-0.17 0.11,-0.13 0.02,-0.04 0.14,-0.1 0.03,-0.1 -0.02,-0.01 0.08,-0.15 0.03,-0.04 0.06,-0.08 0.09,-0.12 0.08,-0.09 0.16,-0.18 0.21,-0.24 0.06,-0.11 0,-0.02 0.1,-0.13 0.02,-0.02 0.06,-0.06 0.1,-0.11 0.08,-0.1 0.1,-0.15 0.23,-0.23 0.02,-0.12 0.11,-0.23 0.21,-0.27 0.08,-0.12 0.17,-0.24 0.26,-0.35 0.11,-0.13 0.17,-0.19 0.28,-0.25 0.04,-0.13 0.03,-0.18 0.18,-0.22 0.09,-0.14 0.19,-0.3 0.3,-0.42 0.12,-0.13 0.22,-0.24 0.32,-0.32 0.02,-0.05 -0.06,-0.07 0.06,-0.04 0.09,-0.18 0.51,-0.69 0.68,-0.79l-0.01 0.01c0.12,-0.24 0.12,-0.15 0.01,-0.19 -0.02,0.02 -1.29,0.73 -1.35,0.74zm-4.28 8.02l0 0.71 0 0.86 0 0.39 -0.04 1.6c-0.01,0.12 -0.01,0.15 -0.05,0.25 -0.08,0.18 -0.03,0.06 -0.1,0.12 -0.28,0.26 -1.42,0.15 -1.91,0.15 -0.69,-0 -1.38,-0 -2.07,-0 -0.24,0 -0.65,0.01 -1.12,0.02l5.29 -4.1zm-5.5 4.1c-0.42,0.01 -0.88,0.01 -1.31,0.01l1.31 -0.01zm-1.47 0.01c-0.59,-0.01 -1.1,-0.03 -1.31,-0.09 -0.07,-0.12 -0.17,-0.19 -0.28,-0.41 -0.08,-0.17 -0.17,-0.35 -0.15,-0.55 -0.04,-0.07 -0,0.04 -0.06,-0.12 -0,-0.01 -0.03,-0.11 -0.03,-0.12 -0.02,-0.09 -0.02,-0.21 -0.03,-0.3 -0.01,-0.34 -0.12,-0.67 -0.17,-0.93l-0.16 -0.1c-0.45,0.07 -1.01,0.25 -1.48,0.16 -0.2,-0.04 -0.45,-0.14 -0.6,-0.24 -0.23,-0.16 -0.19,-0.28 -0.21,-0.61l-0 -0.83 0.01 -0.75 0 -0.81 0 -0.72 0 -0.83 0 -0.75 -0 -0.8 0 -0.72 -0 -0.83 0 -0.74 0 -0.82 0 -0.72 -0 -0.84 0 -0.73 -0 -0.82 -0 -0.71 0 -0.84c0.04,-0.37 0.1,-0.62 0.47,-0.58 0.18,-0.11 1.7,-0.06 1.88,-0.05l-0.05 -0 2.29 0.02c-0.07,0.18 -0.04,0.47 -0.01,0.69l0.05 0.16c0.48,0.23 0.99,0.15 1.61,0.16 0.81,0 0.61,-0.37 0.66,-1.03l1.67 -0 -0.05 -0 1.3 -0 0 0 1.2 0.03c-0.13,-0.12 -0.67,-0.04 -0.89,-0.04 0.1,-0.14 0.48,-0.12 0.69,-0.13l0.61 0.03c0.03,0.2 0.01,0.09 0.22,0.29l0.14 0.13c0.02,-0.01 0.03,-0.04 0.04,-0.03l0.1 -0.09c0.01,-0.01 0.02,-0.02 0.03,-0.03 0.17,-0.15 0.31,0.02 0.09,-0.42 0.33,0.14 0.19,0.08 0,-0 0.19,-0.24 -0.12,-0.07 0.14,-0.07 -0.14,-0.43 -0.67,-0.61 -1.27,-0.7l-0.8 0.01 -0.75 -0.01 -0.81 0.01 -0.74 -0c-0.23,-0 -0.21,0.04 -0.29,-0.12 -0.03,-0.2 -0.01,-0.5 -0.05,-0.67 -0.06,-0.23 -0.14,-0.39 -0.18,-0.56 -0.01,-0.01 -0.02,-0.02 -0.03,-0.03 -0.01,-0.01 -0.02,-0.02 -0.03,-0.03l-0.26 -0.35c-0.26,-0.08 -0.42,-0.33 -0.95,-0.43 -0.42,-0.04 -0.77,0 -1.11,0.17 -0.41,0.21 -0.51,0.21 -1.01,0.27 -0.12,0.03 -0.52,0.09 -0.73,0.06 -0.1,0.07 0.02,0.02 -0.15,0.06 -0.03,0.01 -0.16,0.03 -0.19,0.03 -0.12,0.02 -0.21,0.03 -0.33,0.05l-1.12 0.16 -1.33 0.21 -0.76 0.12 -0.86 0.12 -0.85 0.12 -0.73 0.13c-0.21,0.03 -0.3,0.08 -0.5,0.05l-1.69 0.28c-0.4,0.07 -0.59,0.21 -0.84,0.27 -0.07,0.17 -0.09,0.19 -0.26,0.27 -0.04,0.16 -0.17,0.38 -0.23,0.59l0.02 0.69 0.14 1.09 -1.24 0.35 -0.88 0.25 -1.44 0.44c-0.34,0.08 -0.48,0.19 -0.74,0.31l-0.2 0.17c-0.07,0.13 -0.12,0.18 -0.18,0.32 -0.05,0.11 -0.07,0.22 -0.12,0.34l0.04 0.73 0.27 0.87c0.1,0.29 0.42,1.34 0.42,1.58 0.15,0.13 0.2,0.53 0.25,0.75l0.2 0.74 0.46 1.57 0.27 0.86c0.06,0.23 0.13,0.43 0.19,0.66 0.04,0.13 0.06,0.2 0.09,0.33 0.04,0.16 0.05,0.23 0.14,0.34l-0.01 0.13 0.26 0.84 0.22 0.83 0.24 0.86c0.08,0.11 0.14,0.38 0.13,0.54 0.14,0.14 0.26,0.7 0.3,0.95 0.07,0.09 0.38,1.21 0.37,1.38 0.09,0.08 0.02,-0.04 0.1,0.17 0.02,0.07 0.05,0.18 0.06,0.25 0.04,0.17 0.1,0.3 0.13,0.48l0.23 0.77c0.27,0.72 0.13,0.95 0.69,1.5 0.06,0.06 0.04,0.02 0.09,0.09l-0.02 -0.01c0.31,0.13 0.4,0.2 0.78,0.25l0.7 -0.1 1.56 -0.46c0.22,-0.07 0.51,-0.2 0.75,-0.18 0.15,-0.14 0.87,-0.3 1.04,-0.33l1.42 -0.42 0.76 -0.2 1.54 -0.47 0.76 -0.21 0.78 -0.22 0.91 -0.27 0.73 -0.02 0.67 0 2.44 0 0.73 -0c0.76,-0.01 1.65,0.1 2.32,-0.17 0.42,-0.28 0.73,-0.51 0.76,-1.18l0.01 -0.68 0 -0.75 -0 -0.79 -0 -0.73 0 -0.84 -0 -0.74 0 -0.27c0,-0.05 0.01,-0.21 -0.01,-0.25 -0.05,-0.16 0.06,-0.05 -0.11,-0.12 -0.02,0.16 0.03,0.03 -0.09,0.2 -0.25,0.38 -0.72,0.85 -0.79,1.22l-6.98 4.11zm1.47 -0.01l-0.01 0 0.01 -0zm-13.19 -2.36l-0.01 -0.19c-0.07,-0.2 -0.16,-0.49 -0.16,-0.71 -0.14,-0.14 -0.25,-0.66 -0.29,-0.89 -0.07,-0.12 -0.27,-0.89 -0.3,-1.05 -0.07,-0.15 -0.1,-0.24 -0.09,-0.42 -0.12,-0.14 -0.22,-0.62 -0.29,-0.83 -0.1,-0.32 -0.4,-1.25 -0.39,-1.5 -0.09,-0.11 -0.11,-0.23 -0.15,-0.38 -0.05,-0.19 -0.1,-0.28 -0.13,-0.5l-0.23 -0.75 -0.46 -1.55 -0.2 -0.72c-0.08,-0.14 -0.37,-1.15 -0.38,-1.34 -0.01,-0.33 0.11,-0.4 0.36,-0.49 0.24,-0.08 0.43,-0.14 0.69,-0.19l0.77 -0.22 1.56 -0.46c0.18,-0.06 0.4,-0.15 0.62,-0.13l-0.01 0.26c0.15,0.2 0.16,0.73 0.19,1.03l-0 0.2c-0.21,0.15 -0.58,0.22 -0.86,0.29l-0.66 0.19 -1.41 0.4c0.04,0.22 0.07,0.17 0.04,0.36l0.44 0.03c0.19,-0.07 1.35,-0.43 1.57,-0.42 0.12,-0.12 0.24,-0.11 0.41,-0.16 0.18,-0.05 0.26,-0.08 0.45,-0.12l0.13 -0.02c0.04,0.23 0.08,0.41 0.06,0.62 0.12,0.1 0.1,0.44 0.1,0.6l-0.35 0.09c-0.18,0.07 -0.52,0.18 -0.72,0.17 -0.14,0.15 -0.52,0.2 -0.77,0.28 -0.28,0.08 -0.55,0.16 -0.83,0.22l-0 0.31c0.08,0.04 0.04,-0.09 0.08,0.14 0.17,0.06 0.29,-0.06 0.55,-0.05 0.15,-0.16 1.42,-0.47 1.71,-0.52l0.46 -0.14 0.09 0.54 0.09 0.7 -0.62 0.16 -0.06 0.03 -0.85 0.25 -0.63 0.18 -0.32 0.1 -0 0.2 0.1 0.28 0.18 -0.01c0.15,-0.14 0.53,-0.2 0.75,-0.23l1.52 -0.46 0.07 0.44 0.12 0.71 -0.28 0.08 -0.62 0.17 -0.8 0.23c-0.2,0.09 -0.48,0.11 -0.62,0.25l0.15 0.41 0.52 -0.13c0.19,-0.11 0.54,-0.22 0.75,-0.2l0.99 -0.29 0.03 0.28c0.05,0.22 0.1,0.47 0.07,0.68 0.07,0.1 0.07,0.17 0.09,0.33 0.02,0.13 0.04,0.27 0.05,0.41 0.02,0.25 0.1,0.39 0.06,0.66 0.09,0.11 0.03,-0.01 0.08,0.2 0.01,0.06 0.02,0.17 0.03,0.23 0.02,0.17 0.05,0.35 0.06,0.52l0.13 0.85 0.25 1.57c0.03,0.26 0.12,0.51 0.07,0.78l0.24 0.72c0.13,0.14 0.12,0.11 0.16,0.27 1.17,0.74 1.08,0.39 2.4,0.08 0.15,-0.08 0.36,-0.14 0.54,-0.15 0.15,0.34 0.18,0.42 0.39,0.64 0.28,0.27 0.27,0.2 0.61,0.39l1.08 0.08 -1.21 0.37 -0.03 0 -0.66 0.19c-0.19,0.1 -0.5,0.18 -0.72,0.17 -0.14,0.15 -0.63,0.25 -0.86,0.29 -0.1,0.06 -1.33,0.4 -1.45,0.4l-0.74 0.24c-0.17,0.07 -0.42,0.16 -0.6,0.13 -0.07,0.05 0.09,0.04 -0.18,0.07 -0.06,0.01 -0.13,0 -0.19,-0.02 -0.28,-0.08 -0.36,-0.56 -0.42,-0.87 -0.08,-0.18 -0.13,-0.35 -0.13,-0.56 -0.12,-0.1 -0.46,-1.41 -0.52,-1.68 -0.09,-0.21 -0.19,-0.52 -0.17,-0.74 -0.15,-0.17 -0.23,-0.58 -0.27,-0.81l-0.03 -0.03c-0.03,-0.11 -0.05,-0.19 -0.08,-0.29 -0.01,-0.03 -0.03,-0.1 -0.03,-0.12 -0.1,-0.24 -0.01,-0.04 -0.09,-0.14zm11.93 -16.5c0.11,-0.5 0.31,-0.62 0.73,-0.84 0.17,-0 0.33,-0.04 0.52,-0.01 0.07,0.01 0.14,0.03 0.2,0.06 0.19,0.09 0.08,0.03 0.11,0.09 0.3,0.13 0.43,0.32 0.53,0.7 0.06,0.38 -0.12,0.63 -0.3,0.77 -0.34,0.28 -0.33,0.16 -0.32,0.73 0.02,1.03 -0.71,0.6 -0.78,0.49 -0.12,-0.19 -0.06,-0.49 -0.06,-0.73 0.01,-0.48 -0.09,-0.19 -0.25,-0.5 -0.24,-0.05 -0.45,-0.37 -0.38,-0.77zm6.34 1.67l0.01 0.04c0.3,-0 0.4,0.22 0.38,0.53 0.14,0.19 0.05,2.82 0.05,3.28 -0,0.59 -0.07,2.95 0.04,3.35 0.11,-0.09 0.07,-0.08 0.2,-0.15 0.05,-0.15 0.05,-0.14 0.19,-0.19 0.11,-0.2 0.34,-0.42 0.57,-0.54l0.01 -0.2 -0 -0.81 0 -0.75 -0 -0.82 0 -0.75 -0 -0.81 -0 -0.74 0 -0.82c0,-0.35 -0.01,-0.84 -0.26,-0.98 -0.27,-0.01 0.04,-0.18 -0.14,0.07 0.19,0.08 0.33,0.14 0,0 0.22,0.44 0.08,0.27 -0.09,0.42 -0.01,0.01 -0.02,0.02 -0.03,0.03l-0.1 0.09c-0.01,-0.01 -0.02,0.03 -0.04,0.03l-0.14 -0.13c-0.21,-0.2 -0.19,-0.09 -0.22,-0.29l-0.61 -0.03c-0.21,0.01 -0.59,-0.01 -0.69,0.13 0.22,0 0.76,-0.08 0.89,0.04z"/>
  </g>
 </g>
</svg>
