<?xml version="1.0" encoding="UTF-8"?>
<!DOCTYPE svg PUBLIC "-//W3C//DTD SVG 1.1//EN" "http://www.w3.org/Graphics/SVG/1.1/DTD/svg11.dtd">
<!-- Creator: CorelDRAW -->
<svg xmlns="http://www.w3.org/2000/svg" xml:space="preserve" width="7.6223mm" height="7.7324mm" version="1.1" style="shape-rendering:geometricPrecision; text-rendering:geometricPrecision; image-rendering:optimizeQuality; fill-rule:evenodd; clip-rule:evenodd"
viewBox="0 0 33.94 34.43"
 xmlns:xlink="http://www.w3.org/1999/xlink"
 xmlns:xodm="http://www.corel.com/coreldraw/odm/2003">
 <defs>
  <style type="text/css">
   <![CDATA[
    .fil0 {fill:#FEFEFE}
   ]]>
  </style>
 </defs>
 <g id="Layer_x0020_1">
  <metadata id="CorelCorpID_0Corel-Layer"/>
  <g id="_2758475769888">
   <g>
    <path class="fil0" d="M25.35 8.12c-0.33,0 -0.53,-0.04 -0.78,-0.29 -0.26,-0.27 -0.33,-0.68 -0.18,-1.04 0.04,-0.09 0.12,-0.21 0.19,-0.29 0.06,-0.06 0.2,-0.16 0.28,-0.19 0.45,-0.22 1.02,-0.04 1.27,0.45 0.18,0.36 0.09,0.75 -0.15,1.05 -0.13,0.16 -0.41,0.31 -0.63,0.31zm-0.64 -2.94c-0.1,0.01 -0.35,0.13 -0.43,0.17 -0.19,-0.13 -0.43,-0.6 -0.72,-0.37l-0.41 0.41c-0.08,0.08 -0.11,0.18 -0.07,0.3 0.03,0.11 0.32,0.32 0.39,0.43 -0.02,0.08 -0.14,0.26 -0.2,0.5 -0.15,0 -0.4,-0.02 -0.53,0 -0.14,0.02 -0.24,0.15 -0.24,0.31l0 0.48c0,0.41 0.46,0.31 0.77,0.31 0.05,0.19 0.17,0.42 0.18,0.46 -0.03,0.05 -0.1,0.08 -0.12,0.14 0.16,0.01 0.59,0.12 0.73,0.18 0.12,0.05 0.19,0.1 0.28,0.18 0.05,0.04 0.18,0.21 0.19,0.28 0.08,-0.01 0.56,-0.28 1.02,0.02 0.09,0.06 0.16,0.13 0.21,0.23 0.02,0.04 0.02,0.07 0.05,0.09l0 -0.14c0.14,-0.07 0.28,-0.07 0.48,-0.21 0.23,0.15 0.43,0.64 0.76,0.31 0.12,-0.12 0.45,-0.4 0.45,-0.52 0,-0.2 -0.04,-0.21 -0.19,-0.35 -0.06,-0.06 -0.19,-0.18 -0.23,-0.24l0.13 -0.31c0.01,-0.03 0.02,-0.09 0.04,-0.12 0.23,0 0.76,0.09 0.76,-0.26l0 -0.6c0,-0.13 -0.12,-0.24 -0.25,-0.25 -0.16,-0.01 -0.35,0 -0.51,0 -0.02,-0.1 -0.09,-0.27 -0.13,-0.36 -0.02,-0.05 -0.04,-0.07 -0.06,-0.11 0.06,-0.04 0.18,-0.18 0.25,-0.24 0.12,-0.12 0.2,-0.15 0.2,-0.34 0,-0.14 -0.16,-0.26 -0.24,-0.34 -0.07,-0.07 -0.22,-0.24 -0.31,-0.28 -0.3,-0.14 -0.45,0.25 -0.69,0.41 -0.09,-0.05 -0.35,-0.17 -0.46,-0.18 0,-0.13 0.02,-0.42 -0,-0.53 -0.02,-0.13 -0.14,-0.24 -0.3,-0.24l-0.51 0c-0.4,0 -0.3,0.46 -0.3,0.77z"/>
    <path class="fil0" d="M19.52 8.38l0 1.71c0,0.07 0.17,0.03 0.39,0.13 0.06,0.03 0.12,0.05 0.18,0.08 0.21,0.09 0.83,0.39 1.07,0.5 0.06,0.03 0.12,0.05 0.18,0.08 0.74,0.37 0.85,0.33 1.7,0.19l0.91 -0.13c0.35,-0.06 0.56,-0.25 0.86,-0.45 0.13,-0.09 0.42,-0.28 0.52,-0.39 0.08,-0.09 0.23,-0.33 0.02,-0.38 0.01,-0.07 0.23,-0.24 0,-0.41 -0.21,-0.15 -0.49,-0.07 -0.69,0.04 -0.29,0.15 -0.29,0.38 -0.94,0.47 -0.41,0.06 -0.86,0.09 -1.25,-0.07l-0.32 -0.13c-0.02,-0.01 -0.01,-0.01 -0.02,-0.02 0.14,-0.03 0.96,0.01 1.1,0.02 0.06,0.01 0.12,-0 0.18,0 0.29,0.02 0.43,0.12 0.66,-0.11 0.05,-0.05 0.14,-0.22 0.14,-0.32 0,-0.12 -0.13,-0.26 -0.23,-0.32 -0.35,-0.18 -1.03,-0.22 -1.43,-0.26 -0.19,-0.02 -0.29,-0.06 -0.43,-0.13 -0.13,-0.06 -0.25,-0.13 -0.38,-0.18 -0.5,-0.21 -1.09,-0.23 -1.63,-0.12l-0.46 0.1c-0.05,0.01 -0.13,0.02 -0.13,0.07z"/>
    <path class="fil0" d="M18.3 8.17l0 2.14c0,0.11 0.1,0.14 0.21,0.14 0.5,0 0.63,0.06 0.63,-0.27l0 -1.91c0,-0.32 -0.15,-0.25 -0.67,-0.25 -0.09,0 -0.17,0.05 -0.17,0.14z"/>
   </g>
   <path class="fil0" d="M27.09 32.57c2.15,-0.33 0.97,0.01 1.42,0.41l-1.42 -0.41zm-7.08 0.25c-1.34,0.06 -0.55,0.3 -1.44,-0.32l1.44 0.32zm-2.65 -3.77l12.58 0.07 -0.04 1.93 -12.64 -0.03 0.11 -1.97zm0.07 -0.65l2.25 -10.48 7.74 -0.01 2.24 10.48 -12.22 0.02zm-14.98 -4.56c-0.83,-1.73 0.1,-2.12 0.49,-3.57l0.04 -7.67c-0,-0.2 -0.02,-2.09 -0.02,-2.13 0.27,-1.21 -0.18,-0.7 0.93,-1.13 0.67,0.79 0.22,-0.23 0.5,1.16l-0.08 9.75c-0.02,0.81 1.75,1.54 0.6,3.51 -0.46,0.65 -1.87,0.76 -2.48,0.08zm21.7 -7.4l-1.22 0 0 -1.13 1.22 0 0 1.13zm8.14 -2.55l-17.43 -0.07 -0.1 -12.36 17.4 0.06 0.13 12.38zm-20.54 6.99l5.41 0.2c-0.5,3.27 -3.46,12.16 1.46,13.23 2.12,0.46 2.86,-0.6 3.26,-1.89 5.56,0 2.34,0.74 4.86,1.76 2.48,1 4.19,-1.77 4.42,-2.45 0.83,-2.46 -1.39,-12.37 -2.62,-15.22l-2.82 -0.07 0 -1.13 5.88 0.08c2.01,0.03 2.34,-0.47 2.34,-2.34l-0.02 -11c-0,-1.68 -0.54,-2.04 -2.76,-2.05l-15.39 0.08c-2.65,0.01 -2.74,0.54 -2.72,3.12l0.02 9.4c0.01,2.39 0.33,2.64 2.2,2.65l6.17 0.06 0 1.12 -2.9 0.05 -0.99 3.19c-2.17,0 -4.55,0.1 -6.46,-0.35 -1.87,-3.14 0.14,-9.28 -0.89,-13.32 -0.94,-3.71 -7.13,-4.13 -7.19,1.62 -0.8,0.38 -0.73,0.15 -1.49,0.76 0,3.4 0.16,7.17 0.02,10.52 -0.04,0.95 -2.9,6.93 2.34,6.76 4.81,-0.16 2.04,-4.69 1.99,-7.11 -0.06,-3.36 0.02,-6.82 0.02,-10.19 -1.02,-0.81 -1.7,-0.03 -1.33,-1.96 0.19,-0.99 1.04,-1.58 2.12,-1.59 5.46,-0.04 -1.54,15 5.06,16.08z"/>
   <path class="fil0" d="M26.11 23.06l-4.72 -0.08 0.37 -0.83 4.09 0.02 0.26 0.89zm1.88 1.71l-1.3 -4.05 -5.9 0.01 -1.13 4.03 8.33 0.01z"/>
   <path class="fil0" d="M17.18 3.85l12.71 0.03 0.01 7.63 -12.79 0.01 0.07 -7.67zm13.39 8.33l0.01 -8.99 -14.06 -0.03 -0.07 8.95 14.11 0.08z"/>
   <path class="fil0" d="M3.54 29.43c-1.82,-0.05 -2.24,-1.02 -3.46,-0.06 -0.1,0.52 -0.38,0.83 1.47,1.31 1.38,0.35 3.28,0.37 4.62,-0.07 1.29,-0.42 1.46,-0.61 1.18,-1.24 -1.22,-0.97 -1.86,0.11 -3.81,0.06z"/>
   <path class="fil0" d="M3.58 26.82c-1.44,-0.05 -1.23,-0.75 -2.48,0.11 -0.21,0.3 -0.79,1.46 2.79,1.4 3.11,-0.06 2.66,-1.19 2.46,-1.4 -1.33,-0.9 -1.17,-0.05 -2.77,-0.11z"/>
  </g>
 </g>
</svg>
