<?xml version="1.0" encoding="UTF-8"?>
<!DOCTYPE svg PUBLIC "-//W3C//DTD SVG 1.1//EN" "http://www.w3.org/Graphics/SVG/1.1/DTD/svg11.dtd">
<!-- Creator: CorelDRAW -->
<svg xmlns="http://www.w3.org/2000/svg" xml:space="preserve" width="7.7604mm" height="6.1045mm" version="1.1" style="shape-rendering:geometricPrecision; text-rendering:geometricPrecision; image-rendering:optimizeQuality; fill-rule:evenodd; clip-rule:evenodd"
viewBox="0 0 37.99 29.88"
 xmlns:xlink="http://www.w3.org/1999/xlink"
 xmlns:xodm="http://www.corel.com/coreldraw/odm/2003">
 <defs>
  <style type="text/css">
   <![CDATA[
    .fil0 {fill:#FEFEFE}
   ]]>
  </style>
 </defs>
 <g id="Layer_x0020_1">
  <metadata id="CorelCorpID_0Corel-Layer"/>
  <g id="_2758241392096">
   <path class="fil0" d="M20.14 29.17l-0.78 0 -0.73 0 -0.73 0 -0.73 0 -0.73 0 -0.73 0c-0.36,0.01 -0.58,0.06 -0.71,-0.23l-0.08 -0.05c0.12,-0.36 0.35,-0.35 0.79,-0.35l0.73 -0 0.73 0 0.73 -0 0.73 0 0.73 -0 0.73 0 0.2 -0c0.27,0.03 0.36,0.11 0.41,0.34 -0.09,0.23 -0.26,0.3 -0.56,0.29zm-7.19 -1.91c0.13,-0.24 0.13,-0.27 0.36,-0.42 0.02,-0.09 -0.01,-0.15 0.31,-0.16 0.15,-0.01 0.34,0 0.49,0.01 0.32,0.01 0.69,-0.01 0.98,0l4.31 0c0.28,-0.02 2.57,-0.01 2.69,0.04l0.18 0.1c0.15,0.09 0.12,0.09 0.23,0.22 0.06,0.07 0.08,0.07 0.12,0.12 0.12,0.14 0.05,0.02 0.08,0.16 0.23,0.14 0.23,0.2 0.36,0.42 0.07,0.03 0.04,0 0.08,0.07l-10.68 0c0.06,-0.11 0.37,-0.53 0.47,-0.56zm-9.03 -21.6c-0.12,0.14 -0.1,0.08 -0.22,0.17 -0.1,0.09 -0.08,0.09 -0.15,0.18 -0.35,0.57 -0.24,1.29 -0.24,2.05l0 6.81c0,1.17 0.08,8.56 -0.06,9.06 -0.12,0.23 -0.18,0.26 -0.35,0.43 -0.09,0.16 -0.07,0.1 -0.2,0.25 -0.11,0.12 -0.06,0.16 -0.19,0.2 -0.08,0.12 -0.13,0.23 -0.23,0.3 -0.11,0.13 -0.13,0.17 -0.24,0.3 -0.11,0.13 -0.12,0.23 -0.28,0.29l-0.12 0.2c-0.13,0.18 -0.3,0.35 -0.44,0.53 -0.09,0.12 -0.14,0.15 -0.23,0.26 -0.11,0.12 -0.11,0.15 -0.25,0.29l-0.68 0.83c-0.04,0.14 0,0.34 -0.04,0.53 0.11,0.11 0.15,0.25 0.21,0.43l0.08 0.17c0.17,0.11 0.16,0.15 0.28,0.27 0.13,0.14 0.16,0.08 0.27,0.28 0.1,0.01 0.08,-0.06 0.17,0.08 0.2,0.06 0.54,0.14 0.68,0.26l0.79 0.03 0.73 0 0.73 0 0.73 -0 0.73 0 0.73 0 0.73 0 0.73 0 0.73 -0.01 0.73 0 0.73 0 0.73 0 0.73 0 0.73 0 0.73 0 0.73 0 0.73 0 0.64 0 12.58 0 0.73 0 0.73 0 0.73 0 0.73 0 0.73 0 0.73 0 0.73 0 1.09 0.03 0.33 -0.07c0.91,-0.22 1.4,-0.74 1.58,-1.71 -0.01,-0.25 -0.04,-0.24 -0.09,-0.43 -0.12,-0.05 -0.29,-0.28 -0.36,-0.4 -0.01,-0.01 -0.02,-0.03 -0.03,-0.03l-0.35 -0.45c-0.15,-0.02 -0.13,-0.11 -0.14,-0.18 -0.15,-0.1 -1.18,-1.29 -1.23,-1.49 -0.03,-0.02 -0.05,-0.01 -0.11,-0.07 -0.13,-0.14 -0.05,-0.05 -0.08,-0.16 -0.13,-0.08 -0.14,-0.09 -0.24,-0.21 -0.06,-0.08 -0.14,-0.17 -0.19,-0.26 -0.05,-0.05 -0.18,-0.21 -0.23,-0.3 -0.02,-0.02 -0.08,-0.06 -0.12,-0.13 -0.04,-0.06 -0.06,-0.13 -0.08,-0.21l-0.02 -6.25 -1.88 0.01 -0.01 0.31c0,0.81 0.14,3.85 -0.19,4.31 -0.1,0.21 -0.28,0.41 -0.56,0.42 -0.15,0.13 -0.49,0.13 -0.73,0.12l-0.83 0 -0.64 0 -0.83 0 -0.64 0 -0.83 0 -0.64 0 -0.83 0 -0.64 0 -0.83 0 -0.64 0 -0.83 0 -0.64 0 -0.83 0 -0.64 0 -0.83 0 -0.64 0 -0.83 0 -0.64 0 -0.83 0 -0.64 0 -0.83 0 -0.64 0 -0.83 0 -0.64 0 -0.83 0 -0.64 0 -0.83 0 -0.64 0 -0.83 0 -0.64 0 -0.88 -0.05c-0.3,-0.1 -0.52,-0.21 -0.64,-0.45l-0.05 -0.08c-0.1,-0.14 -0.11,-0.25 -0.15,-0.45 -0.09,-1.5 -0.02,-3.25 -0.02,-4.8 0,-1.21 -0.09,-8.95 0.1,-9.48 0.22,-0.62 0.83,-0.75 1.6,-0.73 2.01,0.06 4.77,-0 6.86,-0 1.05,0 4.99,0.07 5.66,-0.05l0.08 -0.37c0.01,-0.31 0.05,-0.56 -0.11,-0.8l-0.74 0.02 -0.73 0 -0.73 0 -0.73 0 -0.73 0 -0.73 0 -0.73 0 -0.73 0 -0.73 0 -0.73 0 -0.73 0 -0.73 0 -0.73 0 -0.73 0 -0.73 0 -0.73 0 -0.73 0 -0.73 0 -0.73 0 -0.69 0c-0.4,0.01 -0.49,0.08 -0.8,0.19z"/>
   <polygon class="fil0" points="15.74,17.87 18.33,17.87 18.33,15.26 15.74,15.27 "/>
   <polygon class="fil0" points="20.27,18.48 22.87,18.48 22.87,15.87 20.27,15.88 "/>
   <polygon class="fil0" points="17.88,13.95 20.48,13.95 20.48,11.34 17.88,11.35 "/>
   <polygon class="fil0" points="20.9,9.83 24.96,9.83 24.96,5.75 20.9,5.77 "/>
   <polygon class="fil0" points="26.57,9.1 30.63,9.1 30.63,5.01 26.57,5.03 "/>
   <polygon class="fil0" points="25.29,17.43 28.63,17.43 28.63,14.06 25.29,14.08 "/>
   <polygon class="fil0" points="22.27,13.78 25.62,13.78 25.62,10.41 22.27,10.43 "/>
   <polygon class="fil0" points="25.78,4.04 29.13,4.04 29.13,0.67 25.78,0.69 "/>
   <polygon class="fil0" points="29.61,16.6 35.72,16.6 35.72,10.46 29.61,10.49 "/>
   <polygon class="fil0" points="31.87,6.14 37.99,6.14 37.99,0 31.87,0.03 "/>
  </g>
 </g>
</svg>
