<?xml version="1.0" encoding="UTF-8"?>
<!DOCTYPE svg PUBLIC "-//W3C//DTD SVG 1.1//EN" "http://www.w3.org/Graphics/SVG/1.1/DTD/svg11.dtd">
<!-- Creator: CorelDRAW -->
<svg xmlns="http://www.w3.org/2000/svg" xml:space="preserve" width="6.9444mm" height="7.3034mm" version="1.1" style="shape-rendering:geometricPrecision; text-rendering:geometricPrecision; image-rendering:optimizeQuality; fill-rule:evenodd; clip-rule:evenodd"
viewBox="0 0 30.75 32.33"
 xmlns:xlink="http://www.w3.org/1999/xlink"
 xmlns:xodm="http://www.corel.com/coreldraw/odm/2003">
 <defs>
  <style type="text/css">
   <![CDATA[
    .fil0 {fill:#FEFEFE}
   ]]>
  </style>
 </defs>
 <g id="Layer_x0020_1">
  <metadata id="CorelCorpID_0Corel-Layer"/>
  <g id="_2758695496640">
   <path class="fil0" d="M8.89 15.45c-5.11,3.74 -9.8,-1.42 -8.74,11.62l14.26 -0.13 2.28 -1.71c-0.96,-3.23 -1.19,-5.14 1.29,-8.61 -0.5,-0.39 -1.34,-0.84 -1.94,-1.17 -0.27,-3.04 3.35,-2.99 2.7,-9.3 -0.85,-8.24 -11.37,-8.06 -12.47,-0.33 -0.75,5.24 2.79,7.16 2.62,9.64z"/>
   <path class="fil0" d="M23.06 17.19c6.27,-1.42 7.73,7.79 2.26,9.09 -6.46,1.54 -8,-7.8 -2.26,-9.09zm-7.71 11.03c-1.1,1.03 -2.39,2.35 -1.24,3.58 2.68,2.27 5.61,-3.46 6.7,-4.23 0.83,0.34 1.67,0.93 3.31,0.76 6.02,0.03 8.38,-7.08 5.21,-10.66 -5.9,-6.66 -14.82,1.05 -10.92,7.43 -1.1,1.09 -1.94,2.04 -3.06,3.12z"/>
  </g>
 </g>
</svg>
