<?xml version="1.0" encoding="UTF-8"?>
<!DOCTYPE svg PUBLIC "-//W3C//DTD SVG 1.1//EN" "http://www.w3.org/Graphics/SVG/1.1/DTD/svg11.dtd">
<!-- Creator: CorelDRAW -->
<svg xmlns="http://www.w3.org/2000/svg" xml:space="preserve" width="6.5954mm" height="6.4818mm" version="1.1" style="shape-rendering:geometricPrecision; text-rendering:geometricPrecision; image-rendering:optimizeQuality; fill-rule:evenodd; clip-rule:evenodd"
viewBox="0 0 22.17 21.79"
 xmlns:xlink="http://www.w3.org/1999/xlink"
 xmlns:xodm="http://www.corel.com/coreldraw/odm/2003">
 <defs>
  <style type="text/css">
   <![CDATA[
    .fil0 {fill:#FEFEFE}
   ]]>
  </style>
 </defs>
 <g id="Layer_x0020_1">
  <metadata id="CorelCorpID_0Corel-Layer"/>
  <g id="_2758688709264">
   <path class="fil0" d="M18.22 15.55c-0.55,0 -0.45,-0.03 -0.89,-0.36l-1.45 -1.09c-0.25,-0.23 -0.26,0.01 -0.51,0.38 -0.1,0.15 -0.22,0.34 -0.35,0.47l-0.56 0.55c-0.32,0.27 -0.69,0.5 -1.06,0.69 -0.1,0.05 -0.19,0.08 -0.28,0.13l-0.61 0.21c-0.18,0.04 -0.54,0.11 -0.68,0.17 0,0.12 0.04,0.18 0.07,0.28 0.01,0.04 0.01,0.03 0.02,0.07l0.24 0.72c0.06,0.19 0.28,0.7 0.28,0.86l-1.11 0.12c-0.18,-0 -0.27,-0.01 -0.41,0.03 -0.33,0.07 -0.91,-0.02 -1.11,0.32 -0.16,0.27 0.01,0.62 0.24,0.76 0.08,0.05 0.1,0.05 0.2,0.09 0.13,0.06 0.05,0.03 0.24,0.06 0.11,0.01 0.12,0.04 0.24,0.05l1.34 0.03 1.56 -0.11c0.2,-0.04 0.26,-0.05 0.48,-0.07 0.13,-0.01 0.09,-0.04 0.21,-0.05 0.14,-0.02 0.14,0.01 0.26,-0.03 0.2,-0.07 0.46,-0.11 0.64,-0.17 0.09,-0.03 0.16,-0.03 0.23,-0.06 0.13,-0.57 0.08,-0.62 0.48,-1.13 0.14,-0.18 0.41,-0.33 0.63,-0.42l0.11 -0.03c0.38,-0.09 0.27,-0.08 0.73,-0.08 0.16,0 0.36,0.12 0.51,0.16 0.11,0.03 0.14,-0.02 0.21,-0.07 0.28,-0.22 0.54,-0.48 0.79,-0.73 0,-0 0.01,-0.01 0.02,-0.01l0.71 -0.78c0.11,-0.13 0.19,-0.24 0.3,-0.37 0.01,-0.01 0.02,-0.02 0.03,-0.03l0.39 -0.55c0.06,-0.08 0.1,-0.12 0.15,-0.2l0.12 -0.2c0.21,-0.37 0.42,-0.77 0.54,-1.18l0.12 -0.35c0.02,-0.06 0.02,-0.08 0.04,-0.14 0.02,-0.07 0.02,-0.06 0.03,-0.11l0.23 -0.96c0.02,-0.11 0,-0.19 0.02,-0.3 0.05,-0.37 0.1,-0.59 -0.02,-0.96 -0.17,-0.5 -0.99,-0.69 -1.17,-0l-0.16 0.77c-0.02,0.1 -0.03,0.08 -0.05,0.18l-0.51 1.62c-0.26,0.58 -0.54,1.39 -1.11,1.72 -0.07,0.04 -0.28,0.13 -0.36,0.13z"/>
   <path class="fil0" d="M2.39 5.9c0,0.23 0.04,0.39 0.21,0.55 0.48,0.45 0.82,-0.03 1.18,-0.37 0.37,-0.34 0.76,-0.64 1.17,-0.93 0.45,-0.32 1.36,-0.87 1.87,-1.02 0.44,-0.13 1.1,-0.04 1.29,0.43 0.14,0.34 0.24,0.73 0.34,1.09 0.03,0.1 0.02,0.13 0.06,0.23l0.25 0.88c0.08,0.29 0.34,0.09 0.57,0 0.05,-0.02 0.08,-0.03 0.12,-0.05l0.86 -0.22c0.28,-0.07 1.38,-0.06 1.64,-0.01l0.3 0.05c0.09,0.01 0.05,0.01 0.13,0.04 0.15,0.06 0.34,0.08 0.49,0.15 0.05,0.02 0.01,0.01 0.06,0.03l0.37 0.15c0.08,0.04 0.18,0.08 0.29,0.09 0.03,-0.06 0.01,-0.05 0.04,-0.11 0.02,-0.05 0.02,-0.05 0.04,-0.1l0.37 -1.18c0.07,-0.16 0.12,-0.32 0.14,-0.51 0.2,0.05 0.38,0.2 0.55,0.3l1.09 0.63c0.13,0.08 0.28,0.18 0.42,0.22 0.15,0.04 0.29,0.08 0.44,-0.02l0.17 -0.2c0.04,-0.07 0.09,-0.24 0.08,-0.33l-0.11 -0.3c-0.25,-0.35 -0.57,-0.62 -0.91,-0.87 -0.12,-0.09 -0.21,-0.14 -0.33,-0.23l-1.58 -1.01c-0.05,-0.03 -0.05,-0.03 -0.09,-0.06l-1.3 -0.59c-0.3,-0.1 -0.21,-0.14 -0.5,0.14 -0.12,0.12 -0.3,0.22 -0.45,0.28l-0.36 0.11c-0.35,0.08 -0.63,0.02 -0.96,-0.09 -0.69,-0.23 -0.85,-0.83 -0.98,-0.83 -0.51,0 -0.63,0.08 -0.85,0.09l-0.58 0.06c-0.11,0.02 -0.12,0.05 -0.38,0.09 -0.1,0.01 -0.04,0.02 -0.14,0.04 -0.14,0.03 -0.13,-0 -0.27,0.05l-2.13 0.78c-0.55,0.31 -1.21,0.77 -1.66,1.23l-0.77 0.83 -0.17 0.32c-0.02,0.04 -0.02,0.07 -0.02,0.15z"/>
   <path class="fil0" d="M2.92 13.13l0 0.58c0,0.12 0.22,0.78 0.27,0.95 0.01,0.03 0.01,0.03 0.02,0.07l0.26 0.73c0.04,0.09 0.06,0.16 0.1,0.25l0.87 1.81c0.08,0.15 0.25,0.48 0.38,0.58 0.11,0.08 0.6,-0.08 1.12,0.11 0.05,0.02 0.01,0 0.06,0.03 0,0 0.04,0.02 0.06,0.03 0.05,0.02 0.07,0.03 0.12,0.06 0.27,0.15 0.53,0.39 0.66,0.68l0.1 0.22c0.11,0.29 0.12,0.56 0.12,0.9 0.28,0.19 0.59,0.34 0.88,0.52 0.4,0.23 0.97,0.47 1.41,0.63 0.02,0.01 0.04,0.01 0.06,0.02l1.67 0.49 2.39 0c0.16,0 0.32,-0.1 0.5,-0.11 0.2,-0.02 0.33,-0.05 0.49,-0.13 0.15,-0.07 0.27,-0.13 0.38,-0.23 0.23,-0.21 0.24,-0.5 0.13,-0.76 -0.01,-0.03 -0.01,-0.03 -0.03,-0.06 -0.15,-0.31 -0.55,-0.22 -0.83,-0.22 -0.12,0 -0.18,0.04 -0.32,0.06 -0.33,0.06 -0.74,0.03 -1.08,0.06 -0.21,0.02 -1.2,-0.02 -1.4,-0.06 -0.12,-0.03 -0.18,-0.05 -0.32,-0.06 -0.22,-0.01 -0.73,-0.12 -0.91,-0.22 -0.22,-0.12 -0.31,-0.19 -0.46,-0.39l-0.04 -0.05c-0.09,-0.12 -0.16,-0.33 -0.16,-0.48 0,-0.1 0.2,-0.63 0.25,-0.77 0.13,-0.35 0.23,-0.74 0.38,-1.08 0.08,-0.2 0.19,-0.43 0.19,-0.66 -0.11,-0.03 -0.22,-0.04 -0.34,-0.07l-0.91 -0.32c-0.54,-0.23 -1.05,-0.58 -1.46,-0.99 -0.35,-0.36 -0.65,-0.74 -0.89,-1.18l-0.14 -0.24c-0.13,0.03 -0.15,0.05 -0.23,0.12l-1.01 0.76c-0.13,0.1 -0.28,0.25 -0.44,0.29 -0.01,-0.15 -0,-0.03 -0.03,-0.11 -0,-0.01 -0.01,-0.01 -0.01,-0.02l-0.21 -0.49c-0.03,-0.06 -0.02,-0.05 -0.04,-0.1l-0.6 -1.35c-0.2,-0.32 -0.46,-0.36 -0.76,-0.17 -0.1,0.06 -0.23,0.23 -0.23,0.38z"/>
   <path class="fil0" d="M13.3 2.17c0,0.36 0.36,0.5 0.62,0.64 0.05,0.02 0.08,0.05 0.13,0.07 0.97,0.55 1.95,1.25 2.67,2.11 0.21,0.25 0.34,0.4 0.37,0.74 0.02,0.24 -0.02,0.52 -0.06,0.62 -0.03,0.08 0,0.04 -0.07,0.11 -0.13,0.14 -0.78,0.58 -0.96,0.7 -0.32,0.2 -0.61,0.45 -0.93,0.64l-0.04 0.02c-0.11,0.06 -0.03,0.06 -0.16,0.07l0 0.2c0.14,0.04 0.33,0.33 0.42,0.45 0.25,0.36 0.48,0.73 0.63,1.15 0.11,0.32 0.15,0.61 0.29,0.61l1.81 0 0.16 1.09c0.02,0.17 0.03,0.44 0.04,0.6 0.02,0.19 -0.02,0.42 -0.03,0.61 -0.02,0.27 -0.09,0.56 -0.15,0.81l-0.18 0.78c-0.07,0.3 -0.27,0.94 0.19,1.06 0.07,0.02 0.23,0.04 0.25,0.04 0.02,-0 0.12,-0.03 0.13,-0.03 0.16,-0.04 0.29,-0.15 0.38,-0.29 0.2,-0.28 0.33,-0.58 0.44,-0.91l0.36 -1.15c0.03,-0.13 0.04,-0.14 0.07,-0.28l0.2 -0.82c0.03,-0.1 0.01,-0.16 0.04,-0.28 0.03,-0.15 0.04,-0.11 0.05,-0.3 0.01,-0.21 0.09,-0.32 0.09,-0.58 0,-1.1 0.13,-0.5 -0.54,-1.07 -0.07,-0.06 -0.1,-0.11 -0.17,-0.18 -0.1,-0.12 -0.19,-0.27 -0.25,-0.42l-0.15 -0.55c0,-0.42 0.1,-0.87 0.37,-1.2 0.04,-0.04 0.07,-0.06 0.1,-0.11 0.09,-0.13 -0.12,-0.48 -0.19,-0.64l-0.2 -0.41c-0.19,-0.32 -0.35,-0.68 -0.54,-1 -0.2,-0.33 -0.42,-0.6 -0.63,-0.92l-0.45 -0.54c-0,-0 -0.01,-0.01 -0.01,-0.02 -0,-0 -0.01,-0.01 -0.01,-0.02 -0,-0 -0.01,-0.01 -0.01,-0.02l-1.08 -0.93 -0.68 -0.46c-0.07,-0.05 -0.04,-0.03 -0.13,-0.08 -0.05,-0.03 -0.09,-0.05 -0.13,-0.07 -0.08,-0.05 -0.15,-0.08 -0.24,-0.14 -0.01,-0.01 -0.05,-0.03 -0.06,-0.03 -0.06,-0.03 -0.02,-0.01 -0.08,-0.04 -0.01,-0 -0.01,-0.01 -0.02,-0.01 -0.01,-0 -0.01,-0.01 -0.02,-0.01l-0.36 -0.16c-0.07,-0.03 -0,-0 -0.06,-0.03l-0.06 -0.02c-0.09,-0.03 -0.1,-0.06 -0.17,-0.06 -0.43,0 -0.75,-0.05 -0.94,0.4 -0.03,0.06 -0.05,0.16 -0.05,0.24z"/>
   <path class="fil0" d="M2.92 7.65l0.14 0.27c0,0.01 0.01,0.04 0.01,0.04 0,0.01 0.01,0.01 0.01,0.02 0,0.01 0.01,0.03 0.02,0.04 0.05,0.12 0.03,0.09 0.06,0.23 0.07,0.36 0.05,0.44 -0.02,0.79 -0.09,0.45 -0.46,0.91 -0.88,1.1 -0.41,0.18 -0.57,0.12 -0.59,0.37 -0.01,0.12 0.01,0.07 -0.03,0.17 -0.02,0.05 -0.04,0.1 -0.05,0.15 -0.01,0.08 -0,0.11 -0.02,0.18l-0.19 1.27c0,0.18 -0.01,0.25 -0.03,0.41 -0.02,0.14 -0.02,0.21 -0.03,0.38 -0,0.16 -0.04,0.22 -0.03,0.41 0.01,0.23 0.04,0.52 0.08,0.74 0.02,0.13 -0,0.27 0.01,0.39 0.01,0.09 0.03,0.08 0.05,0.16l0.22 0.88c0,0.01 0,0.01 0.01,0.02 0.17,0.58 0.42,1.2 0.73,1.72 0.03,0.05 0.01,0.01 0.03,0.05 0.67,1.19 1.52,0.66 1.52,0.17 0,-0.19 -0.16,-0.48 -0.25,-0.65 -0.03,-0.06 -0.03,-0.05 -0.06,-0.12l-0.12 -0.26c-0.01,-0.03 -0.01,-0.03 -0.02,-0.06l-0.07 -0.17c-0,-0.01 -0.01,-0.01 -0.01,-0.02l-0.58 -2.02c-0.02,-0.13 -0.06,-0.17 -0.07,-0.28l-0.06 -0.7c-0.02,-0.21 -0.02,-0.41 0.02,-0.63l0.16 -1c0.01,-0.24 0.01,-0.46 0.07,-0.69 0.02,-0.09 0.03,-0.04 0.04,-0.13 0.03,-0.19 -0.04,-0.38 0.11,-0.51 0.15,-0.13 0.48,-0.07 0.68,-0.07l2.33 0 0.12 -0.34c0.1,-0.41 0.39,-0.94 0.62,-1.28 0.15,-0.21 0.36,-0.49 0.54,-0.66 0.12,-0.11 0.24,-0.15 -0.04,-0.33l-0.03 -0.02c-0.01,-0 -0.01,-0.01 -0.02,-0.01 -0.01,-0 -0.01,-0.01 -0.02,-0.01l-1.16 -0.82c-0.07,-0.05 -0.14,-0.11 -0.22,-0.13 0.03,-0.11 0.24,-0.27 0.35,-0.35l0.44 -0.38c0,-0 0.01,-0.01 0.02,-0.01l0.17 -0.15c0.09,-0.09 0.16,-0.13 0.25,-0.22l0.34 -0.3c0,-0 0.01,-0.01 0.01,-0.01 0,-0 0.01,-0.01 0.01,-0.02 0.08,-0.09 0.16,-0.15 0.21,-0.26 0.07,-0.15 0.07,-0.1 0.07,-0.28 0,-0.03 -0.07,-0.16 -0.08,-0.18 -0.02,-0.03 -0.09,-0.11 -0.13,-0.14 -0.41,-0.37 -1.01,0.05 -1.38,0.27 -0.13,0.08 -0.18,0.11 -0.3,0.2l-0.81 0.62c-0.05,0.04 -0.09,0.07 -0.13,0.1 -0.34,0.26 -0.97,0.79 -1.27,1.15l-0.11 0.13c-0.04,0.05 -0.07,0.07 -0.12,0.12 -0.06,0.06 -0.06,0.08 -0.12,0.15 -0.15,0.16 -0.31,0.36 -0.43,0.53z"/>
   <path class="fil0" d="M10.96 3.01c0.14,0 0.31,-0.05 0.46,-0.09l0.4 -0.19c0.39,-0.27 0.69,-0.77 0.69,-1.24 0,-0.18 -0.08,-0.48 -0.15,-0.64 -0.11,-0.26 -0.31,-0.47 -0.53,-0.64 -0.39,-0.29 -0.66,-0.21 -1.22,-0.21 -0.15,0 -0.18,0.04 -0.27,0.09 -0.1,0.05 -0.13,0.05 -0.22,0.13 -0.38,0.29 -0.45,0.41 -0.6,0.8 -0.08,0.2 -0.07,0.42 -0.05,0.62 0.05,0.54 0.41,1.03 0.9,1.23l0.59 0.14z"/>
   <path class="fil0" d="M15.69 19.52c0,0.3 0,0.55 0.15,0.81 0.17,0.28 0.33,0.49 0.63,0.65 0.32,0.17 0.77,0.23 1.08,0.14l0.24 -0.09c0.03,-0.02 0.08,-0.04 0.12,-0.06 0.18,-0.09 0.25,-0.16 0.38,-0.29 0.37,-0.37 0.43,-0.74 0.43,-1.2 0,-0.11 -0.02,-0.06 -0.06,-0.26 -0.07,-0.34 -0.42,-0.76 -0.75,-0.91 -0.08,-0.04 -0.15,-0.08 -0.22,-0.1 -0.05,-0.01 -0.09,-0.02 -0.14,-0.03 -0.11,-0.03 0,-0.04 -0.14,-0.04 -0.5,0 -0.49,-0.04 -0.91,0.17 -0.44,0.22 -0.81,0.76 -0.81,1.2z"/>
   <path class="fil0" d="M-0 8.15l0 0.87c0,0.1 0.17,0.4 0.25,0.48 0.22,0.27 0.41,0.41 0.73,0.52 0.32,0.12 0.21,0.07 0.71,0.07 0.1,0 0.29,-0.07 0.38,-0.11 0.21,-0.09 0.41,-0.24 0.55,-0.41l0.23 -0.38c0.13,-0.28 0.18,-0.59 0.09,-0.88 -0.1,-0.32 -0.12,-0.48 -0.41,-0.76 -0.28,-0.28 -0.27,-0.25 -0.58,-0.38 -0.37,-0.16 -0.53,-0.1 -0.78,-0.06 -0.17,0.03 -0.12,0 -0.26,0.06 -0.31,0.14 -0.49,0.26 -0.71,0.55 -0.05,0.06 -0.22,0.35 -0.22,0.42z"/>
   <path class="fil0" d="M19.19 8.17c0,0.35 0.01,0.54 0.2,0.88 0.15,0.27 0.33,0.42 0.61,0.59 0.02,0.01 0.1,0.05 0.11,0.06 0.04,0.02 0.03,0.01 0.07,0.02 0.01,0 0.02,0 0.02,0.01l0.04 0.02c0.23,0.08 0.62,0.1 0.86,0.02 0.36,-0.12 0.59,-0.26 0.83,-0.57 0.33,-0.42 0.23,-0.66 0.23,-1.31 0,-0.11 -0.15,-0.34 -0.21,-0.43 -0.25,-0.33 -0.36,-0.4 -0.72,-0.56 -0.13,-0.06 -0.09,-0.04 -0.25,-0.07 -0.21,-0.04 -0.12,-0.05 -0.36,-0.05 -0.15,0 -0.03,0.01 -0.14,0.04 -0.31,0.09 -0.47,0.07 -0.82,0.4l-0.03 0.03c-0,0 -0.01,0.01 -0.01,0.02l-0.26 0.36c-0.08,0.15 -0.17,0.39 -0.17,0.56z"/>
   <path class="fil0" d="M3.79 19.81c0,0.38 0.14,0.77 0.41,1.04 0.44,0.44 0.99,0.62 1.61,0.4 0.09,-0.03 0.05,-0.01 0.13,-0.05 0.04,-0.02 0.08,-0.05 0.13,-0.07 0.14,-0.07 0.25,-0.17 0.35,-0.29 0.16,-0.19 0.2,-0.24 0.28,-0.45 0.12,-0.27 0.16,-0.62 0.07,-0.9 -0.01,-0.04 -0.02,-0.09 -0.04,-0.14 -0.03,-0.08 -0.07,-0.17 -0.11,-0.24 -0.15,-0.27 -0.45,-0.56 -0.73,-0.67 -0.1,-0.04 -0.17,-0.08 -0.26,-0.09 -0.58,-0.09 -0.95,0.01 -1.39,0.39 -0.15,0.13 -0.24,0.29 -0.33,0.46 -0.08,0.14 -0.15,0.46 -0.15,0.61z"/>
  </g>
 </g>
</svg>
