<?xml version="1.0" encoding="UTF-8"?>
<!DOCTYPE svg PUBLIC "-//W3C//DTD SVG 1.1//EN" "http://www.w3.org/Graphics/SVG/1.1/DTD/svg11.dtd">
<!-- Creator: CorelDRAW 2021 (64-Bit) -->
<svg xmlns="http://www.w3.org/2000/svg" xml:space="preserve" width="220px" height="190px" version="1.1" style="shape-rendering:geometricPrecision; text-rendering:geometricPrecision; image-rendering:optimizeQuality; fill-rule:evenodd; clip-rule:evenodd"
viewBox="0 0 220 190"
 xmlns:xlink="http://www.w3.org/1999/xlink"
 xmlns:xodm="http://www.corel.com/coreldraw/odm/2003">
 <defs>
  <style type="text/css">
   <![CDATA[
    .fil0 {fill:#2D4EB1}
   ]]>
  </style>
 </defs>
 <g id="Слой_x0020_1">
  <metadata id="CorelCorpID_0Corel-Layer"/>
  <g>
   <path class="fil0" d="M-390.79 -557.51l1.28 0.97c0.51,0.52 0.59,0.61 1.22,1.18 0.99,0.91 1.78,1.73 2.41,2.75 0.85,0.85 0.59,0.48 1.14,1.53l2.47 2.13c0.84,0.76 1.92,1.76 2.31,2.77 1.5,1.17 1.3,0.82 2.36,2.45l-13.91 0.18 -0.03 -14.84c0.86,0.57 0.44,0.34 0.75,0.88zm121.24 -80.19c-0.89,1.35 -1.74,1.53 -3.26,2.2 -0.21,0.45 -0.02,0.2 -0.75,0.78 -0.4,0.32 -0.54,0.41 -0.93,0.68 -0.97,0.68 -1.27,0.88 -2.31,1.15 -1.07,1.7 -2.07,1.77 -3.57,3.02 -1.77,1.48 -9.23,6.87 -9.82,8.48 -2.1,1.02 -2.24,2.04 -4.32,3.18l-0.65 0.71c-0.73,1.29 -3.69,3.87 -5.12,5.07 -0.62,0.53 0.08,0.08 -0.8,0.55l-0.14 0.26c-0.96,1.96 -2.69,2.65 -3.93,4.47 -2.19,2.12 -9.46,11.64 -10.04,13.76 -1.15,-0.43 -1.24,-0.48 -2.27,-1.11 -1.18,-0.72 -1.13,-0.54 -1.92,-1.48 -1.27,-0.18 -4.31,-2.11 -5.73,-2.93 -1.64,-0.96 -4.57,-2.04 -5.79,-2.75l-6.34 -2.09c-0.06,-0.14 -0.2,-0.11 -0.29,-0.18 -0.74,0.58 -0.78,-0.22 -0.14,1.12l2.66 3.79c0.6,0.89 1.12,1.64 1.78,2.64 1.11,1.71 1.12,1.29 1.31,2.54 1.27,0.9 0.74,0.47 1.36,2.02 0.97,0.62 1.95,2.62 2.14,3.82 1.39,0.88 1.4,1.67 2.16,3.1 0.35,0.65 0.63,0.98 0.92,1.5 0.9,1.56 0.49,0.45 0.61,1.67 1.17,1.1 2.8,4.37 3.5,5.99 0.75,1 3.4,5.9 4.52,8.34 0.21,0.46 0.36,0.83 0.44,1.07 0.56,-0.48 1.14,-1.33 1.72,-2.35 1.44,-2.51 2.93,-6.03 4.34,-7.4 0.53,-1.71 0.7,-1.42 1.46,-2.76 0.31,-0.55 0.3,-0.75 0.73,-1.29 0.71,-0.89 0.28,-0.36 0.94,-0.8 0.17,-1.19 -0.79,0.06 0.56,-1.16l8.27 -12.06c0.18,-1.32 0.53,-1.26 1.39,-2.49 0.8,-1.13 0.53,-1.14 1.59,-1.88 0.6,-1.28 0.32,-0.9 1.43,-1.65 0.2,-1.32 1.07,-1.87 1.96,-3.1l6.86 -8.56c0.27,-0.4 0.67,-1.09 0.89,-1.34 0.85,-0.98 0.12,-0.28 1.05,-0.8 0.22,-0.81 -0.14,-0.05 0.6,-1.15 0.2,-0.3 0.48,-0.66 0.69,-0.92 0.6,-0.73 1.27,-1.37 1.65,-1.82 0.5,-0.85 0.01,-0.17 0.75,-1.01 0.14,-0.16 0.46,-0.46 0.76,-0.82 0.63,-0.73 0.82,-1.12 1.81,-1.76 0.14,-0.94 0.87,-1.78 1.65,-2.06 0.63,-0.93 1.31,-1.89 2.02,-2.74 0.84,-0.99 1.35,-1.51 2.2,-1.97 0.28,-1.03 0.22,-1.41 1.39,-1.71 0.68,-1.1 1.47,-2.34 2.32,-3.24 0.97,-1.02 1.73,-1.88 2.44,-2.49 0.15,-0.39 -0.47,-0.56 0.44,-0.28 0.69,-1.37 3.94,-5.32 5.27,-6.11l-0.05 0.09c0.89,-1.85 0.93,-1.16 0.06,-1.46 -0.18,0.19 -9.99,5.62 -10.47,5.72zm-33.15 62.03l0 5.53 0 6.66 0 3.01 -0.29 12.37c-0.09,0.93 -0.04,1.18 -0.37,1.94 -0.61,1.38 -0.27,0.49 -0.78,0.95 -2.13,1.99 -10.96,1.13 -14.79,1.12 -5.35,-0.01 -10.7,0 -16.05,0 -1.87,0 -5.03,0.06 -8.67,0.12l40.95 -31.7zm-42.59 31.73c-3.27,0.05 -6.82,0.09 -10.1,0.06l10.1 -0.06zm-11.39 0.05c-4.59,-0.05 -8.51,-0.25 -10.16,-0.71 -0.53,-0.95 -1.31,-1.45 -2.17,-3.14 -0.65,-1.3 -1.3,-2.71 -1.16,-4.25 -0.34,-0.51 -0.02,0.34 -0.45,-0.92 -0.04,-0.11 -0.22,-0.82 -0.25,-0.96 -0.13,-0.72 -0.16,-1.61 -0.21,-2.34 -0.04,-2.63 -0.91,-5.21 -1.34,-7.2l-1.23 -0.78c-3.5,0.57 -7.82,1.92 -11.44,1.27 -1.57,-0.28 -3.5,-1.06 -4.61,-1.85 -1.8,-1.27 -1.48,-2.14 -1.65,-4.71l0 -6.45 0.08 -5.76 0 -6.3 0 -5.6 0 -6.39 0 -5.81 0 -6.21 0 -5.59 0 -6.46 0.01 -5.76 0 -6.32 0 -5.54 0 -6.49 0 -5.65 0 -6.36 -0.01 -5.52 0.02 -6.54c0.3,-2.84 0.79,-4.77 3.63,-4.51 1.39,-0.81 13.13,-0.44 14.54,-0.41l-0.4 -0.01 17.73 0.16c-0.56,1.42 -0.34,3.64 -0.1,5.36l0.42 1.24c3.72,1.81 7.7,1.18 12.45,1.2 6.3,0.03 4.75,-2.86 5.14,-7.93l12.89 -0.03 -0.4 0 10.03 0 0 0.01 9.28 0.22c-1.03,-0.94 -5.21,-0.32 -6.88,-0.32 0.75,-1.1 3.69,-0.92 5.33,-1.03l4.7 0.23c0.25,1.53 0.11,0.7 1.72,2.23l1.09 0.97c0.12,-0.05 0.26,-0.34 0.31,-0.26l0.78 -0.71c0.07,-0.05 0.15,-0.14 0.21,-0.19 1.35,-1.19 2.43,0.17 0.71,-3.25 2.57,1.08 1.49,0.62 0,0 1.45,-1.89 -0.93,-0.58 1.12,-0.52 -1.11,-3.37 -5.17,-4.73 -9.86,-5.38l-6.15 0.04 -5.82 -0.07 -6.29 0.05 -5.7 -0.03c-1.75,-0.04 -1.6,0.31 -2.25,-0.9 -0.26,-1.56 -0.08,-3.84 -0.41,-5.22 -0.43,-1.79 -1.09,-2.99 -1.43,-4.34 -0.08,-0.08 -0.18,-0.18 -0.23,-0.23 -0.05,-0.05 -0.17,-0.16 -0.23,-0.22l-1.99 -2.69c-2.02,-0.58 -3.28,-2.56 -7.37,-3.32 -3.25,-0.3 -5.99,0.01 -8.6,1.33 -3.16,1.6 -3.94,1.64 -7.79,2.05 -0.96,0.24 -4.05,0.69 -5.68,0.44 -0.77,0.58 0.18,0.12 -1.16,0.47 -0.22,0.05 -1.2,0.2 -1.49,0.24 -0.91,0.14 -1.61,0.24 -2.53,0.35l-8.63 1.27 -10.28 1.62 -5.9 0.96 -6.65 0.91 -6.54 0.92 -5.66 0.98c-1.59,0.25 -2.31,0.58 -3.88,0.36l-13.08 2.18c-3.13,0.55 -4.59,1.59 -6.53,2.05 -0.56,1.34 -0.71,1.51 -2.05,2.1 -0.32,1.27 -1.32,2.92 -1.8,4.6l0.16 5.32 1.07 8.41 -9.56 2.72 -6.85 1.97 -11.1 3.37c-2.61,0.62 -3.68,1.45 -5.74,2.4l-1.52 1.33c-0.53,0.99 -0.91,1.41 -1.39,2.45 -0.42,0.89 -0.58,1.7 -0.96,2.64l0.29 5.68 2.08 6.74c0.78,2.24 3.26,10.4 3.25,12.22 1.2,0.97 1.56,4.09 1.97,5.78l1.55 5.75 3.59 12.13 2.06 6.69c0.48,1.75 0.97,3.29 1.48,5.1 0.27,0.97 0.46,1.57 0.72,2.52 0.35,1.27 0.39,1.77 1.07,2.63l-0.11 0.99 1.98 6.46 1.72 6.39 1.83 6.62c0.61,0.88 1.08,2.97 1.03,4.21 1.08,1.1 2,5.41 2.33,7.35 0.57,0.72 2.94,9.36 2.88,10.66 0.66,0.65 0.14,-0.34 0.74,1.3 0.19,0.52 0.35,1.38 0.5,1.95 0.35,1.3 0.77,2.28 0.98,3.71l1.77 5.93c2.07,5.55 1.01,7.35 5.35,11.57 0.49,0.47 0.29,0.19 0.68,0.69l-0.18 -0.05c2.38,1 3.07,1.55 6.04,1.9l5.41 -0.78 12.05 -3.59c1.69,-0.57 3.95,-1.52 5.78,-1.36 1.15,-1.07 6.73,-2.35 8.02,-2.57l11 -3.28 5.85 -1.59 11.94 -3.62 5.91 -1.65 6 -1.68 7.03 -2.12 5.61 -0.12 5.22 0 18.85 0 5.62 -0.01c5.87,-0.06 12.8,0.77 17.94,-1.33 3.23,-2.14 5.62,-3.97 5.91,-9.11l0.11 -5.27 0.01 -5.84 -0.01 -6.12 -0.02 -5.69 0.03 -6.5 -0.02 -5.76 0.01 -2.08c-0.01,-0.42 0.04,-1.61 -0.07,-1.95 -0.4,-1.2 0.44,-0.38 -0.83,-0.92 -0.18,1.25 0.2,0.22 -0.7,1.57 -1.95,2.94 -5.58,6.59 -6.13,9.43l-53.98 31.78zm11.39 -0.05l-0.12 0.03 0.12 -0.03zm-102.08 -18.29l-0.05 -1.51c-0.54,-1.53 -1.25,-3.78 -1.24,-5.48 -1.09,-1.05 -1.92,-5.14 -2.25,-6.86 -0.56,-0.96 -2.12,-6.89 -2.31,-8.12 -0.58,-1.14 -0.79,-1.88 -0.72,-3.22 -0.91,-1.11 -1.69,-4.83 -2.23,-6.44 -0.75,-2.46 -3.1,-9.65 -2.98,-11.59 -0.74,-0.81 -0.88,-1.8 -1.19,-2.96 -0.42,-1.51 -0.76,-2.19 -0.99,-3.87l-1.75 -5.83 -3.55 -11.97 -1.51 -5.57c-0.59,-1.1 -2.87,-8.86 -2.94,-10.33 -0.11,-2.56 0.82,-3.11 2.78,-3.76 1.84,-0.6 3.35,-1.09 5.31,-1.5l5.94 -1.72 12.07 -3.55c1.4,-0.47 3.11,-1.14 4.81,-1.04l-0.06 2.03c1.16,1.54 1.22,5.69 1.51,7.97l-0.03 1.58c-1.65,1.17 -4.49,1.73 -6.67,2.25l-5.08 1.46 -10.91 3.12c0.3,1.73 0.51,1.28 0.34,2.78l3.39 0.24c1.49,-0.52 10.47,-3.31 12.15,-3.24 0.9,-0.92 1.86,-0.88 3.19,-1.24 1.37,-0.38 2.03,-0.66 3.48,-0.9l0.97 -0.19c0.31,1.77 0.6,3.13 0.44,4.82 0.93,0.77 0.8,3.38 0.75,4.68l-2.73 0.72c-1.42,0.57 -4.04,1.39 -5.61,1.34 -1.09,1.12 -4.06,1.58 -5.98,2.13 -2.16,0.61 -4.28,1.27 -6.41,1.68l-0.03 2.4c0.63,0.33 0.34,-0.66 0.6,1.06 1.35,0.48 2.25,-0.44 4.22,-0.43 1.16,-1.21 10.97,-3.61 13.25,-4.04l3.55 -1.06 0.67 4.18 0.74 5.42 -4.83 1.24 -0.45 0.2 -6.58 1.9 -4.89 1.43 -2.45 0.75 -0.03 1.55 0.8 2.15 1.41 -0.08c1.18,-1.06 4.1,-1.52 5.77,-1.78l11.78 -3.54 0.53 3.42 0.92 5.53 -2.19 0.61 -4.83 1.31 -6.2 1.81c-1.58,0.72 -3.72,0.83 -4.83,1.92l1.18 3.17 4.04 -0.99c1.49,-0.85 4.19,-1.67 5.84,-1.56l7.69 -2.22 0.23 2.17c0.41,1.7 0.75,3.6 0.52,5.26 0.53,0.75 0.54,1.33 0.73,2.56 0.14,0.99 0.28,2.12 0.41,3.17 0.19,1.93 0.79,3.06 0.46,5.1 0.73,0.86 0.26,-0.05 0.62,1.52 0.1,0.48 0.18,1.29 0.25,1.81 0.16,1.28 0.36,2.7 0.5,4l0.98 6.59 1.93 12.13c0.2,2.02 0.89,3.98 0.54,6.03l1.88 5.55c1.02,1.09 0.91,0.83 1.23,2.12 9.08,5.7 8.37,3.02 18.58,0.64 1.13,-0.61 2.76,-1.11 4.14,-1.14 1.2,2.6 1.39,3.28 3.05,4.93 2.13,2.12 2.1,1.53 4.69,2.98l8.36 0.6 -9.39 2.9 -0.21 0.02 -5.1 1.45c-1.46,0.73 -3.9,1.41 -5.59,1.32 -1.08,1.18 -4.89,1.91 -6.64,2.21 -0.8,0.5 -10.27,3.08 -11.21,3.06l-5.7 1.86c-1.3,0.58 -3.24,1.24 -4.61,0.98 -0.56,0.39 0.71,0.29 -1.36,0.55 -0.48,0.06 -0.98,0.01 -1.45,-0.13 -2.16,-0.65 -2.79,-4.37 -3.27,-6.72 -0.62,-1.35 -1.04,-2.73 -1,-4.3 -0.96,-0.81 -3.58,-10.94 -4,-12.97 -0.68,-1.66 -1.49,-3.98 -1.32,-5.71 -1.18,-1.29 -1.75,-4.5 -2.09,-6.3l-0.22 -0.26c-0.26,-0.82 -0.39,-1.43 -0.6,-2.21 -0.06,-0.2 -0.2,-0.77 -0.27,-0.94 -0.76,-1.85 -0.08,-0.34 -0.69,-1.09zm92.3 -127.63c0.85,-3.86 2.43,-4.78 5.61,-6.53 1.35,-0.02 2.55,-0.29 4.02,-0.08 0.56,0.08 1.07,0.21 1.57,0.45 1.46,0.69 0.6,0.22 0.87,0.68 2.3,1.03 3.33,2.46 4.08,5.43 0.49,2.96 -0.93,4.85 -2.34,5.99 -2.63,2.14 -2.54,1.26 -2.5,5.66 0.17,7.95 -5.48,4.64 -6.02,3.79 -0.91,-1.43 -0.5,-3.75 -0.46,-5.62 0.08,-3.72 -0.7,-1.49 -1.92,-3.84 -1.84,-0.38 -3.51,-2.88 -2.91,-5.93zm49.03 12.93l0.06 0.28c2.34,-0.04 3.08,1.7 2.9,4.08 1.09,1.44 0.38,21.83 0.38,25.4 -0.01,4.59 -0.57,22.86 0.28,25.92 0.82,-0.68 0.56,-0.61 1.55,-1.15 0.4,-1.14 0.36,-1.09 1.47,-1.5 0.89,-1.56 2.67,-3.29 4.4,-4.22l0.05 -1.58 -0.03 -6.28 0.02 -5.77 -0.01 -6.32 0.01 -5.82 -0.01 -6.24 0 -5.7 0.01 -6.38c0.02,-2.73 -0.11,-6.51 -1.99,-7.57 -2.05,-0.06 0.33,-1.37 -1.12,0.52 1.49,0.62 2.57,1.08 0,0 1.72,3.42 0.64,2.06 -0.71,3.25 -0.06,0.05 -0.14,0.14 -0.21,0.19l-0.78 0.71c-0.05,-0.08 -0.19,0.21 -0.31,0.26l-1.09 -0.97c-1.61,-1.53 -1.47,-0.7 -1.72,-2.23l-4.7 -0.23c-1.64,0.11 -4.58,-0.07 -5.33,1.03 1.67,0 5.85,-0.62 6.88,0.32z"/>
  </g>
  <g>
   <path class="fil0" d="M88.02 145.22l1.28 0.96c0.51,0.52 0.6,0.62 1.23,1.19 0.99,0.9 1.78,1.73 2.41,2.75 0.84,0.84 0.59,0.48 1.14,1.53l2.47 2.13c0.84,0.76 1.91,1.76 2.31,2.77 1.49,1.16 1.3,0.82 2.36,2.45l-13.91 0.18 -0.03 -14.84c0.86,0.56 0.44,0.34 0.74,0.88zm121.25 -80.19c-0.89,1.35 -1.74,1.53 -3.26,2.19 -0.21,0.46 -0.03,0.2 -0.75,0.78 -0.4,0.32 -0.54,0.41 -0.94,0.69 -0.96,0.67 -1.27,0.87 -2.3,1.15 -1.07,1.69 -2.07,1.76 -3.58,3.02 -1.76,1.47 -9.23,6.86 -9.82,8.48 -2.09,1.02 -2.23,2.04 -4.32,3.18l-0.64 0.71c-0.73,1.29 -3.69,3.86 -5.12,5.07 -0.62,0.53 0.08,0.07 -0.8,0.54l-0.14 0.27c-0.97,1.95 -2.69,2.64 -3.93,4.46 -2.19,2.13 -9.46,11.65 -10.04,13.77 -1.15,-0.43 -1.24,-0.49 -2.27,-1.12 -1.18,-0.71 -1.13,-0.53 -1.93,-1.47 -1.26,-0.18 -4.31,-2.11 -5.72,-2.93 -1.64,-0.96 -4.57,-2.05 -5.79,-2.75l-6.35 -2.09c-0.05,-0.14 -0.2,-0.12 -0.29,-0.19 -0.73,0.58 -0.78,-0.22 -0.14,1.13l2.67 3.79c0.6,0.89 1.12,1.64 1.78,2.64 1.11,1.71 1.11,1.28 1.31,2.54 1.27,0.9 0.74,0.46 1.35,2.01 0.97,0.63 1.95,2.62 2.15,3.83 1.38,0.88 1.4,1.66 2.16,3.1 0.34,0.65 0.63,0.98 0.92,1.5 0.9,1.55 0.49,0.45 0.6,1.66 1.18,1.11 2.81,4.37 3.51,5.99 0.75,1 3.4,5.9 4.52,8.35 0.2,0.45 0.36,0.82 0.44,1.07 0.56,-0.48 1.13,-1.33 1.72,-2.35 1.44,-2.51 2.92,-6.03 4.34,-7.4 0.53,-1.72 0.7,-1.42 1.46,-2.77 0.31,-0.54 0.3,-0.75 0.73,-1.28 0.71,-0.89 0.27,-0.36 0.94,-0.8 0.17,-1.19 -0.79,0.05 0.56,-1.16l8.27 -12.07c0.17,-1.31 0.53,-1.25 1.39,-2.48 0.8,-1.13 0.52,-1.15 1.59,-1.89 0.6,-1.28 0.32,-0.89 1.43,-1.64 0.19,-1.32 1.07,-1.88 1.95,-3.1l6.87 -8.56c0.27,-0.4 0.67,-1.09 0.89,-1.35 0.85,-0.98 0.12,-0.28 1.05,-0.79 0.22,-0.81 -0.14,-0.05 0.6,-1.16 0.2,-0.3 0.48,-0.65 0.69,-0.91 0.59,-0.73 1.27,-1.37 1.65,-1.83 0.5,-0.84 0.01,-0.16 0.75,-1 0.14,-0.17 0.46,-0.46 0.76,-0.82 0.63,-0.74 0.81,-1.13 1.81,-1.77 0.14,-0.93 0.87,-1.77 1.65,-2.05 0.63,-0.94 1.31,-1.89 2.02,-2.75 0.83,-0.99 1.35,-1.5 2.2,-1.96 0.27,-1.03 0.22,-1.41 1.39,-1.71 0.68,-1.1 1.47,-2.34 2.32,-3.24 0.96,-1.02 1.73,-1.88 2.44,-2.49 0.15,-0.4 -0.47,-0.57 0.44,-0.29 0.69,-1.36 3.94,-5.31 5.26,-6.11l-0.04 0.1c0.89,-1.85 0.92,-1.16 0.05,-1.46 -0.17,0.19 -9.99,5.62 -10.46,5.72zm-33.16 62.03l0.01 5.53 0 6.65 0 3.01 -0.29 12.37c-0.09,0.94 -0.04,1.19 -0.38,1.95 -0.61,1.38 -0.27,0.48 -0.77,0.94 -2.13,1.99 -10.96,1.14 -14.8,1.13 -5.34,-0.01 -10.69,0 -16.04,-0.01 -1.87,0 -5.03,0.07 -8.67,0.13l40.94 -31.7zm-42.58 31.73c-3.28,0.05 -6.82,0.08 -10.1,0.06l10.1 -0.06zm-11.39 0.05c-4.6,-0.06 -8.51,-0.25 -10.16,-0.72 -0.54,-0.94 -1.31,-1.44 -2.17,-3.14 -0.66,-1.29 -1.3,-2.7 -1.16,-4.24 -0.34,-0.51 -0.02,0.34 -0.46,-0.93 -0.03,-0.11 -0.22,-0.81 -0.24,-0.95 -0.13,-0.72 -0.16,-1.62 -0.22,-2.35 -0.04,-2.63 -0.9,-5.2 -1.33,-7.19l-1.23 -0.78c-3.5,0.56 -7.83,1.92 -11.44,1.27 -1.57,-0.29 -3.5,-1.07 -4.62,-1.85 -1.8,-1.27 -1.48,-2.14 -1.64,-4.71l-0.01 -6.45 0.09 -5.77 0 -6.3 0 -5.6 0 -6.38 0 -5.82 0 -6.21 0 -5.59 0 -6.45 0.01 -5.76 0 -6.33 0 -5.54 -0.01 -6.48 0.01 -5.65 0 -6.37 -0.01 -5.51 0.01 -6.54c0.3,-2.84 0.8,-4.78 3.64,-4.51 1.39,-0.81 13.13,-0.44 14.54,-0.42l-0.4 0 17.73 0.16c-0.56,1.42 -0.34,3.64 -0.11,5.36l0.43 1.23c3.71,1.81 7.7,1.18 12.45,1.21 6.29,0.03 4.75,-2.86 5.14,-7.93l12.89 -0.03 -0.4 0 10.02 -0.01 0.01 0.01 9.28 0.23c-1.04,-0.95 -5.21,-0.33 -6.88,-0.33 0.74,-1.09 3.68,-0.91 5.33,-1.02l4.7 0.22c0.25,1.54 0.1,0.71 1.72,2.24l1.08 0.97c0.13,-0.06 0.27,-0.35 0.32,-0.26l0.78 -0.71c0.06,-0.06 0.14,-0.14 0.21,-0.2 1.35,-1.19 2.42,0.18 0.7,-3.24 2.58,1.08 1.5,0.62 0,0 1.46,-1.89 -0.93,-0.58 1.12,-0.52 -1.1,-3.37 -5.16,-4.73 -9.85,-5.39l-6.16 0.04 -5.82 -0.06 -6.29 0.05 -5.69 -0.03c-1.75,-0.04 -1.6,0.31 -2.25,-0.91 -0.26,-1.55 -0.08,-3.84 -0.41,-5.22 -0.43,-1.79 -1.09,-2.98 -1.44,-4.33 -0.07,-0.08 -0.18,-0.18 -0.22,-0.23 -0.06,-0.05 -0.17,-0.16 -0.23,-0.23l-1.99 -2.68c-2.02,-0.59 -3.28,-2.56 -7.38,-3.32 -3.24,-0.3 -5.98,0 -8.59,1.33 -3.16,1.6 -3.94,1.64 -7.79,2.05 -0.96,0.24 -4.05,0.69 -5.68,0.44 -0.77,0.58 0.17,0.12 -1.16,0.46 -0.22,0.06 -1.2,0.21 -1.49,0.25 -0.91,0.13 -1.61,0.23 -2.53,0.35l-8.64 1.27 -10.28 1.62 -5.9 0.95 -6.64 0.91 -6.54 0.93 -5.66 0.98c-1.6,0.25 -2.31,0.58 -3.89,0.36l-13.07 2.17c-3.13,0.55 -4.59,1.6 -6.53,2.06 -0.56,1.34 -0.71,1.51 -2.05,2.1 -0.32,1.27 -1.32,2.91 -1.8,4.6l0.16 5.32 1.07 8.4 -9.56 2.73 -6.85 1.97 -11.11 3.37c-2.6,0.62 -3.68,1.45 -5.73,2.4l-1.52 1.32c-0.53,1 -0.91,1.42 -1.4,2.46 -0.41,0.89 -0.57,1.7 -0.95,2.63l0.29 5.69 2.08 6.74c0.78,2.23 3.26,10.4 3.25,12.22 1.19,0.97 1.55,4.08 1.97,5.78l1.55 5.75 3.58 12.12 2.06 6.7c0.48,1.75 0.97,3.29 1.48,5.1 0.28,0.97 0.47,1.57 0.73,2.52 0.34,1.27 0.39,1.77 1.06,2.62l-0.1 0.99 1.98 6.47 1.71 6.38 1.83 6.63c0.62,0.87 1.08,2.96 1.04,4.21 1.07,1.1 2,5.41 2.33,7.35 0.57,0.72 2.94,9.35 2.88,10.65 0.66,0.66 0.14,-0.33 0.74,1.31 0.19,0.52 0.35,1.38 0.5,1.94 0.35,1.31 0.77,2.29 0.97,3.72l1.78 5.93c2.07,5.54 1,7.34 5.35,11.57 0.48,0.46 0.29,0.19 0.67,0.69l-0.17 -0.05c2.38,0.99 3.06,1.55 6.04,1.9l5.41 -0.78 12.05 -3.59c1.69,-0.57 3.95,-1.53 5.78,-1.36 1.14,-1.07 6.72,-2.35 8.02,-2.57l11 -3.28 5.84 -1.59 11.94 -3.63 5.91 -1.64 6.01 -1.68 7.03 -2.13 5.61 -0.12 5.22 0.01 18.85 0 5.62 -0.01c5.87,-0.06 12.8,0.77 17.93,-1.34 3.23,-2.13 5.63,-3.97 5.92,-9.11l0.11 -5.26 0.01 -5.84 -0.01 -6.13 -0.03 -5.68 0.03 -6.51 -0.01 -5.76 0 -2.07c0,-0.42 0.05,-1.62 -0.06,-1.95 -0.4,-1.2 0.43,-0.39 -0.83,-0.93 -0.19,1.26 0.2,0.23 -0.7,1.58 -1.95,2.94 -5.58,6.59 -6.14,9.43l-53.97 31.78zm11.39 -0.05l-0.12 0.02 0.12 -0.02zm-102.08 -18.29l-0.05 -1.51c-0.54,-1.53 -1.25,-3.79 -1.25,-5.48 -1.08,-1.05 -1.91,-5.14 -2.24,-6.86 -0.57,-0.96 -2.12,-6.9 -2.31,-8.12 -0.58,-1.15 -0.79,-1.88 -0.72,-3.23 -0.91,-1.1 -1.7,-4.82 -2.23,-6.44 -0.75,-2.45 -3.11,-9.65 -2.99,-11.58 -0.73,-0.82 -0.87,-1.8 -1.19,-2.97 -0.41,-1.5 -0.75,-2.18 -0.98,-3.86l-1.75 -5.83 -3.55 -11.97 -1.51 -5.57c-0.59,-1.1 -2.88,-8.87 -2.94,-10.34 -0.11,-2.55 0.82,-3.11 2.78,-3.75 1.84,-0.61 3.35,-1.1 5.3,-1.51l5.94 -1.71 12.08 -3.55c1.39,-0.47 3.11,-1.15 4.81,-1.04l-0.06 2.03c1.16,1.53 1.21,5.69 1.51,7.97l-0.04 1.58c-1.65,1.17 -4.48,1.72 -6.66,2.25l-5.09 1.45 -10.9 3.13c0.29,1.73 0.51,1.27 0.34,2.77l3.39 0.25c1.48,-0.53 10.47,-3.31 12.15,-3.24 0.9,-0.92 1.85,-0.88 3.19,-1.25 1.37,-0.37 2.02,-0.65 3.48,-0.89l0.97 -0.19c0.31,1.76 0.6,3.13 0.44,4.82 0.92,0.77 0.8,3.38 0.74,4.68l-2.73 0.71c-1.42,0.58 -4.03,1.4 -5.61,1.34 -1.08,1.12 -4.05,1.58 -5.98,2.13 -2.15,0.62 -4.27,1.27 -6.4,1.69l-0.03 2.4c0.63,0.33 0.34,-0.67 0.59,1.05 1.36,0.48 2.26,-0.44 4.23,-0.42 1.15,-1.22 10.97,-3.62 13.25,-4.05l3.55 -1.05 0.67 4.18 0.73 5.42 -4.82 1.24 -0.45 0.2 -6.58 1.9 -4.9 1.42 -2.44 0.76 -0.04 1.54 0.81 2.15 1.41 -0.07c1.17,-1.07 4.1,-1.52 5.77,-1.79l11.78 -3.53 0.52 3.42 0.93 5.52 -2.2 0.61 -4.83 1.31 -6.2 1.82c-1.57,0.72 -3.71,0.83 -4.82,1.92l1.18 3.16 4.04 -0.98c1.49,-0.85 4.19,-1.67 5.84,-1.57l7.68 -2.21 0.24 2.16c0.41,1.71 0.74,3.61 0.52,5.27 0.53,0.74 0.54,1.33 0.72,2.56 0.15,0.99 0.29,2.11 0.42,3.17 0.18,1.93 0.78,3.05 0.46,5.1 0.72,0.86 0.26,-0.06 0.61,1.51 0.11,0.48 0.19,1.29 0.25,1.81 0.17,1.28 0.37,2.71 0.5,4.01l0.99 6.58 1.92 12.14c0.21,2.01 0.9,3.98 0.55,6.03l1.88 5.55c1.01,1.08 0.91,0.83 1.22,2.11 9.09,5.71 8.38,3.03 18.58,0.64 1.14,-0.6 2.76,-1.1 4.15,-1.13 1.2,2.6 1.39,3.28 3.05,4.93 2.13,2.11 2.1,1.53 4.69,2.98l8.36 0.6 -9.39 2.9 -0.21 0.02 -5.1 1.44c-1.46,0.74 -3.9,1.42 -5.6,1.33 -1.07,1.18 -4.89,1.91 -6.63,2.2 -0.8,0.5 -10.27,3.09 -11.22,3.07l-5.69 1.86c-1.31,0.58 -3.25,1.24 -4.61,0.98 -0.57,0.39 0.71,0.29 -1.36,0.55 -0.48,0.06 -0.98,0 -1.45,-0.14 -2.16,-0.64 -2.8,-4.36 -3.27,-6.71 -0.63,-1.36 -1.04,-2.73 -1,-4.3 -0.97,-0.81 -3.58,-10.95 -4.01,-12.97 -0.67,-1.66 -1.48,-3.99 -1.32,-5.72 -1.17,-1.28 -1.74,-4.49 -2.09,-6.29l-0.21 -0.26c-0.27,-0.82 -0.4,-1.44 -0.61,-2.21 -0.05,-0.21 -0.19,-0.78 -0.26,-0.95 -0.77,-1.84 -0.09,-0.34 -0.69,-1.08zm92.29 -127.63c0.86,-3.87 2.44,-4.78 5.62,-6.53 1.35,-0.02 2.55,-0.3 4.02,-0.08 0.56,0.08 1.06,0.21 1.57,0.45 1.45,0.69 0.6,0.22 0.87,0.68 2.29,1.02 3.33,2.46 4.08,5.43 0.49,2.96 -0.93,4.84 -2.34,5.99 -2.63,2.13 -2.54,1.26 -2.5,5.66 0.17,7.95 -5.48,4.64 -6.02,3.79 -0.91,-1.43 -0.5,-3.75 -0.46,-5.63 0.08,-3.72 -0.7,-1.48 -1.92,-3.83 -1.85,-0.39 -3.52,-2.89 -2.92,-5.93zm49.04 12.93l0.06 0.28c2.34,-0.04 3.08,1.7 2.9,4.08 1.08,1.44 0.38,21.83 0.38,25.39 -0.01,4.6 -0.57,22.86 0.27,25.92 0.83,-0.68 0.56,-0.6 1.56,-1.14 0.39,-1.15 0.35,-1.1 1.47,-1.51 0.88,-1.56 2.67,-3.28 4.4,-4.21l0.05 -1.58 -0.04 -6.29 0.03 -5.77 -0.02 -6.31 0.01 -5.82 0 -6.25 -0.01 -5.7 0.02 -6.37c0.02,-2.74 -0.11,-6.51 -2,-7.57 -2.05,-0.06 0.34,-1.37 -1.12,0.52 1.5,0.62 2.58,1.08 0,0 1.72,3.42 0.65,2.05 -0.7,3.24 -0.07,0.06 -0.15,0.14 -0.21,0.2l-0.78 0.71c-0.05,-0.09 -0.19,0.2 -0.32,0.26l-1.08 -0.97c-1.62,-1.53 -1.47,-0.7 -1.72,-2.24l-4.7 -0.22c-1.65,0.11 -4.59,-0.07 -5.33,1.02 1.67,0 5.84,-0.62 6.88,0.33z"/>
  </g>
 </g>
</svg>
