<?xml version="1.0" encoding="UTF-8"?>
<!DOCTYPE svg PUBLIC "-//W3C//DTD SVG 1.1//EN" "http://www.w3.org/Graphics/SVG/1.1/DTD/svg11.dtd">
<!-- Creator: CorelDRAW 2021 (64-Bit) -->
<svg xmlns="http://www.w3.org/2000/svg" xml:space="preserve" width="178px" height="182px" version="1.1" style="shape-rendering:geometricPrecision; text-rendering:geometricPrecision; image-rendering:optimizeQuality; fill-rule:evenodd; clip-rule:evenodd"
viewBox="0 0 178 182"
 xmlns:xlink="http://www.w3.org/1999/xlink"
 xmlns:xodm="http://www.corel.com/coreldraw/odm/2003">
 <defs>
  <style type="text/css">
   <![CDATA[
    .fil0 {fill:#2D4EB1}
   ]]>
  </style>
 </defs>
 <g id="Слой_x0020_1">
  <metadata id="CorelCorpID_0Corel-Layer"/>
  <path class="fil0" d="M36.66 152l-1.7 -0.6 0.1 -0.64 1.63 0.53c26.87,4.81 42.62,6.67 70.27,5.78 8.8,-0.28 8.89,-5.95 12.35,-12.91l24.67 -51.58c2.55,-5.43 6.73,-12.74 8.25,-17.78l7.61 1.56 -15.33 34.65c-1.55,3.43 -3.61,7.81 -5.28,11.52 -6.86,15.26 -13.67,31.71 -20.85,46.05 -19.1,-1.51 -44.76,-5.11 -63.21,-10.35 -6.64,-1.89 -12.42,-4.2 -18.51,-6.23zm89.34 31.2l-0.38 0c-0.06,-0.07 -0.12,-0.16 -0.18,-0.27 -0.07,-0.12 -0.27,0.17 -0.4,0.27l-6.48 0c-1.99,-0.86 -32.25,-4.06 -37.77,-4.95 -20.3,-3.28 -47.43,-9.79 -63.8,-21.02 -15.79,-10.83 -14.13,-17.93 -17.21,-24.83l0 -5.97c1.64,-3.84 -0.64,-2.05 4.52,-12.16 1.82,-3.57 3.72,-6.85 5.75,-10.98l4.18 -8.01c0.54,-1 0.81,-1.63 1.54,-3.02 1.93,-3.73 4.15,-7.94 5.95,-11.43l28.68 -55.62c1.87,-3.64 3.56,-8.45 6.87,-9.87 1.81,-0.78 27.19,-0.04 32.38,-0.46 9.59,-0.77 19.56,-2.29 28.65,-4.77 4.59,-1.25 8.34,-2.4 12.67,-4.04 2.84,-1.07 10.15,-4.76 12.15,-4.87 0.11,0.11 0.34,0.03 0.4,0.23 0.38,1.3 1.72,-1.96 1.72,5.66l2.3 0 -0.22 14.19c-0.7,4.29 -0.2,2.72 0.9,3.51 -0.03,3.09 -2.48,6.09 -3.37,9.31 11.93,1.74 20.61,0 22.02,6.91 0.97,4.79 -6.44,15.91 -7.88,20.54 2.4,0.69 2.59,0.71 5.31,0.99 10.21,1.04 9.15,-0.91 13.49,5.97l0 3.18c-1.67,2.54 -4.01,8.61 -5.44,11.8 -5.92,13.17 -36.28,79.29 -36.37,81.91 -2.29,2.08 -3.59,6.62 -4.91,9.64 -0.69,1.58 -1.24,3.33 -2.15,4.79l-2.7 2.56c-0.09,0.06 -0.11,0.55 -0.22,0.81zm-97.33 -49.18l-1.81 -0.64c1.65,-0.77 0.79,-0.73 2.47,0.12 10.32,-0.87 23.81,3.27 47.01,-0.11 7.01,-1.02 13.36,-2.59 19.54,-5.26 7.16,-3.08 10.42,-5.65 13.07,-11.73 1.91,-4.36 28.73,-67.1 30.24,-69.06l7.26 1.39c4.06,1.03 1.17,-0.27 2.33,1.44 -2.04,1.1 -42.86,91.99 -45.31,92.76 -26.83,0.2 -50.93,-1.3 -74.8,-8.91zm1.64 -15.08l-11.32 -1.34c0.15,-2.12 5.26,-11.21 6.47,-13.33l0.17 0.27c1.12,-3.51 14.62,-28.91 17.36,-34.11l12.99 -25.07c1.1,-2.04 2.54,-6.1 4.55,-7.78 0.34,-2.78 2.51,-5.58 3.62,-8.26 32.48,1.22 41.95,-1.29 71.05,-9.46 -1.47,5 -5.38,12.96 -7.83,18.44l-15.73 36.26c-0.79,1.83 -1.14,2.89 -1.87,4.47l-13.57 31.47c-5.29,11.78 -53.09,10.7 -65.89,8.44z"/>
 </g>
</svg>
