<?xml version="1.0" encoding="UTF-8"?>
<!DOCTYPE svg PUBLIC "-//W3C//DTD SVG 1.1//EN" "http://www.w3.org/Graphics/SVG/1.1/DTD/svg11.dtd">
<!-- Creator: CorelDRAW 2021 (64-Bit) -->
<svg xmlns="http://www.w3.org/2000/svg" xml:space="preserve" width="240px" height="152px" version="1.1" style="shape-rendering:geometricPrecision; text-rendering:geometricPrecision; image-rendering:optimizeQuality; fill-rule:evenodd; clip-rule:evenodd"
viewBox="0 0 240 152"
 xmlns:xlink="http://www.w3.org/1999/xlink"
 xmlns:xodm="http://www.corel.com/coreldraw/odm/2003">
 <defs>
  <style type="text/css">
   <![CDATA[
    .fil0 {fill:#2D4EB1}
   ]]>
  </style>
 </defs>
 <g id="Слой_x0020_1">
  <metadata id="CorelCorpID_0Corel-Layer"/>
  <path class="fil0" d="M121.04 132.66c3.38,0.31 4.42,-1.71 9.69,-4.28 1.48,-0.72 3.26,-1.57 4.71,-2.4 1.58,-0.9 2.57,-1.67 4.64,-2.5 6.97,-2.79 13.15,-6.15 20.58,-7.98 2.01,-0.49 3.7,-0.67 5.61,-1.15 4.31,-1.1 14.23,-3.07 18.37,-3.07 3.17,0 3.05,-0.75 6.21,-0.75 4.18,-0.01 9.88,-0.29 13.61,0.57 1.83,0.42 4.83,0.33 6.73,0.02l0.07 -2.5c-0.56,-1.13 -0.8,-3.18 -1.1,-4.6 -0.44,-2.13 -0.67,-3.1 -0.92,-5.2 -0.34,-2.79 -2.42,-7.84 -1.84,-10.29 -1.45,-1.45 -1.86,-5.48 -2.24,-7.54 -0.46,-2.5 -1.32,-5.3 -1.86,-7.72 -1.09,-4.8 -2.65,-10.03 -3.38,-14.28l-6.6 -31.81c-0.36,-1.18 -0.9,-4.21 -1.4,-6.2 -0.63,-2.46 -1.08,-4.05 -1.53,-6.53 -0.54,-3.01 -2.91,-10.34 -2.53,-12.82 -3.96,-1.47 -19.16,-0.58 -24.67,-0.58 -7.28,0 -4.86,-0.34 -11.59,0.78 -1.8,0.29 -3.69,0.68 -5.36,1.09 -5.99,1.47 -16.85,6.23 -21.77,9.37 -3.37,2.16 -3.31,5.24 -3.27,9.24 0.08,9.71 0.5,106.9 -0.16,111.13zm-83.78 -107.31l0.15 0.1 1.92 -7.46c-0.25,-0.11 -0.42,-0.34 -0.47,-0.24 -0.06,0.09 -0.25,-0.16 -0.32,-0.2 -1.97,-1.12 -1.45,-0.79 -3.07,-0.97 -15.41,-1.68 -10.88,-6.73 -14.65,10.58 -1.31,2.51 -3.66,20.99 -4.67,25.22 -0.9,3.77 -1.58,8.33 -2.35,12.2 -0.28,1.36 -2.01,11.4 -2.73,12.17 -0.04,1.12 -0.49,6.02 -1.25,6.88 -1.01,8.09 -4.51,18.52 -5.6,29.41 -0.55,5.5 -4.02,11.7 -3.05,17.46 1.26,-0.45 24.61,4.14 30.19,5.05 1.19,0.2 2.19,0.52 3.95,0.85 1.24,0.24 3.34,0.49 4.77,0.73l12.29 2.62c2.96,0.56 13.62,1.48 16.87,2.79 0.11,0.04 0.29,0.33 0.37,0.22 0.07,-0.11 0.25,0.14 0.35,0.24l-0.21 -0.28c2.22,0.28 3.58,0.53 5.48,0.77l28.98 5.4c0.98,0.18 1.71,0.4 2.45,0.57 1.94,0.45 3.11,0.71 5.14,0.98 3.92,0.53 7.23,0.55 11.66,0.56 1.32,0 1.69,-0.01 2.92,-0.24l28.86 -5.44c10.32,-2.67 32.45,-5.02 41.94,-7.57 3.4,-0.9 6.92,-1.22 10.44,-1.79l10.34 -2.03c4.51,-1 16.75,-2.86 20.09,-4.05l0.69 -0.28c0.51,-4.78 -0.25,-4.08 -1.07,-7.37 -0.56,-2.24 -0.74,-5.16 -1.27,-7.25 -1.29,-5.12 -1.56,-9.48 -2.7,-14.75l-14.05 -71.76c-0.7,-3.41 -2.05,-11.41 -3.34,-14l-5.48 1.05c-3.11,0.81 -6.38,0.72 -8.5,1.81 -0.12,0.06 -0.24,0.14 -0.34,0.19l0.66 9.13c0.8,0.45 1.32,4.83 1.39,5.7 1.86,2.34 4.05,17.94 5.02,21.68l0.27 2.99c0.74,0.74 1,2.71 1.34,4.63 0.85,4.78 2.7,7.97 3.44,14.17l0.6 1.42c0.06,0.19 0.38,1.54 0.41,1.7 0.23,1.2 0.46,2.56 0.68,3.46 0.55,2.29 0.95,4.53 1.47,6.58 0.78,3.07 2.8,10.5 2.91,13.36 0.07,0.1 0.13,0.24 0.17,0.32 0.03,0.07 0.11,0.22 0.15,0.32l1.61 7.83c0.44,2.46 1.36,5.57 1.61,7.91 -2.8,0.14 -4.23,-0.71 -6.93,-0.71 -3.24,0.02 -3.97,-0.65 -7.15,-0.62 -2.54,0.02 -5.09,-0.01 -7.62,0.01l-32.58 5.41c-3.9,0.98 -8.46,1.85 -12.31,3.02l-3.69 1.12c-0.1,0.04 -0.22,0.09 -0.31,0.13l-7.27 2.56c-10.25,3.78 -11.18,5.09 -18.72,8.09 -3.49,1.39 -5.98,3.02 -8.76,2.21l-10.36 -4.7c-2.98,-1.56 -3.82,-1.5 -5.41,-2.28 -4.75,-2.31 -16.9,-6.8 -22.29,-7.9 -4.53,-0.93 -8.54,-2.31 -12.29,-2.98 -2.5,-0.45 -3.62,-0.92 -6.14,-1.47l-16.58 -2.6c-6.82,0.06 -10.73,-1.31 -18.55,-0.43 -0.91,0.78 -5.37,0.43 -6.33,0.25 -0.36,0.97 0.96,1.2 -3.91,0.86l1.63 -9.91c0.69,-3.4 1.45,-6.41 2.3,-9.89l3.43 -14.3c0.34,-1.37 0.34,-4.07 1.45,-4.6 -0.32,-1.68 3.12,-15.14 3.71,-15.85 0.22,-3.08 5.4,-29.14 7.06,-30.84 -0.24,-2.27 1.03,-5.34 1.16,-7.95zm10.98 -3.86c-1,3.93 -1.61,7.57 -2.56,11.63l-4.88 22.7c-0.41,1.9 -1.88,10.03 -2.8,11.41 0,3.64 -3.28,15.06 -4.57,20.15l-1.09 5.45c-0.02,0.08 -0.09,0.24 -0.11,0.3l-0.25 0.54c-0.6,5.02 -3.29,12.42 -2.7,17.59l20.04 -0.62 30.53 5.01c6.29,1.74 14.44,5.05 19.9,7.75l16.06 8.5c1.09,0.65 0.83,0.99 2.62,0.58 0.54,-5.65 0.09,-90.24 0.09,-98.45 0,-22.38 1.86,-18.48 -7.18,-24.08 -3.32,-2.06 -9.15,-4.38 -12.8,-5.55 -9.17,-2.91 -12.31,-3.35 -21.1,-3.35 -7.83,0 -16.89,-0.41 -24.56,0.07 -1.02,2.83 -3.3,16.37 -4.64,20.37z"/>
 </g>
</svg>
