<?xml version="1.0" encoding="UTF-8"?>
<!DOCTYPE svg PUBLIC "-//W3C//DTD SVG 1.1//EN" "http://www.w3.org/Graphics/SVG/1.1/DTD/svg11.dtd">
<!-- Creator: CorelDRAW 2021 (64-Bit) -->
<svg xmlns="http://www.w3.org/2000/svg" xml:space="preserve" width="169px" height="192px" version="1.1" style="shape-rendering:geometricPrecision; text-rendering:geometricPrecision; image-rendering:optimizeQuality; fill-rule:evenodd; clip-rule:evenodd"
viewBox="0 0 169 192"
 xmlns:xlink="http://www.w3.org/1999/xlink"
 xmlns:xodm="http://www.corel.com/coreldraw/odm/2003">
 <defs>
  <style type="text/css">
   <![CDATA[
    .fil0 {fill:#2D4EB1}
   ]]>
  </style>
 </defs>
 <g id="Слой_x0020_1">
  <metadata id="CorelCorpID_0Corel-Layer"/>
  <path class="fil0" d="M168.49 175.41c1.04,-8.82 -1.16,-20.04 -3.94,-27.31 -3.1,-8.12 -7.34,-14.49 -12.04,-19.77l-3.99 -4.14c-1.06,-1.07 -2.81,-2.51 -4.23,-3.54 -23.21,-16.75 -37.06,-13.9 -65.47,-13.9 -21.37,0 -33.33,-0.39 -51.37,12.07 -12.14,8.4 -22.27,22.61 -25.34,37.85 -1.51,7.5 -3.51,21.51 2.2,27.11 9.87,9.68 37.99,8.83 54.56,8.95 20.19,0.14 74.05,1.36 92.57,-2.83 8.7,-1.97 15.94,-4.97 17.05,-14.49z"/>
  <path class="fil0" d="M79.59 1.97c-13.42,1.2 -26.18,6.6 -34.58,16.22 -7.36,8.44 -14.38,21.31 -13.04,37.51 1.61,19.53 14.78,36.52 32.65,43.03 36.94,13.45 72.01,-14.71 69.78,-50.82 -1.59,-25.7 -26.13,-48.51 -54.81,-45.94z"/>
 </g>
</svg>
