<?xml version="1.0" encoding="UTF-8"?>
<!DOCTYPE svg PUBLIC "-//W3C//DTD SVG 1.1//EN" "http://www.w3.org/Graphics/SVG/1.1/DTD/svg11.dtd">
<!-- Creator: CorelDRAW 2021 (64-Bit) -->
<svg xmlns="http://www.w3.org/2000/svg" xml:space="preserve" width="164px" height="171px" version="1.1" style="shape-rendering:geometricPrecision; text-rendering:geometricPrecision; image-rendering:optimizeQuality; fill-rule:evenodd; clip-rule:evenodd"
viewBox="0 0 164 171"
 xmlns:xlink="http://www.w3.org/1999/xlink"
 xmlns:xodm="http://www.corel.com/coreldraw/odm/2003">
 <defs>
  <style type="text/css">
   <![CDATA[
    .fil0 {fill:#2D4EB1}
    .fil2 {fill:#B7DAF9}
    .fil3 {fill:#F69A31}
    .fil1 {fill:white}
    .fil4 {fill:white}
   ]]>
  </style>
 </defs>
 <g id="Слой_x0020_1">
  <metadata id="CorelCorpID_0Corel-Layer"/>
  <g id="_1985050531408">
   <rect class="fil0" x="-1.11" y="0.87" width="163.97" height="170.61"/>
   <path class="fil1" d="M48.85 139.99c0.84,-0.28 29.24,-0.62 30.78,0.06 2.54,1.14 2.51,5.17 -0.23,6.12 -0.78,0.27 -29.26,0.55 -30.94,-0.1 -2.47,-0.96 -2.75,-5.01 0.39,-6.08zm-26.4 -13.2c1.53,-0.61 7.38,-0.27 9.49,-0.27 9.21,0 8.1,-0.35 8.1,11.91 0,9.24 -0.05,7.94 -12.07,7.95 -9.02,0 -7.79,0.02 -7.79,-11.92 0,-3.74 -0.78,-6.43 2.27,-7.67zm0 -34.42c1.53,-0.62 7.38,-0.27 9.49,-0.27 9.21,-0.01 8.1,-0.35 8.1,11.91 0,9.24 -0.05,7.94 -12.07,7.94 -9.02,0.01 -7.79,0.03 -7.79,-11.91 0,-3.74 -0.78,-6.43 2.27,-7.67zm83.9 -21.27c4.09,-1.36 6.08,5.13 1.86,6.26 -4.14,1.12 -6.05,-4.88 -1.86,-6.26zm-57.5 0.05c1.72,-0.58 35.91,-0.21 42.67,-0.24 8.8,-0.04 5.78,5.8 3.47,6.44 -2.3,0.64 -35.6,0.15 -42.86,0.19 -2.68,0.01 -4.53,0.09 -5.3,-2 -0.85,-2.27 0.28,-3.8 2.02,-4.39zm-26.4 -13.2c1.53,-0.62 7.38,-0.28 9.49,-0.28 9.21,0 8.1,-0.34 8.1,11.92 0,3.16 0.59,6.88 -2.31,7.76 -1.41,0.43 -7.81,0.18 -9.76,0.18 -9.02,0.01 -7.79,0.03 -7.79,-11.91 0,-3.74 -0.78,-6.43 2.27,-7.67zm51.75 -41.18c10.03,-1.83 9.9,4.71 6.7,6.13 -2.02,0.89 -5.92,-0.52 -6.94,1.36 -1.66,3.03 2.44,2.86 4.09,3.22 9.21,2.02 9.02,16.69 -2.41,16.96 -2.28,0.05 -6,0.49 -7.51,-0.78 -1.64,-1.39 -1.29,-4.56 0.61,-5.45 2,-0.94 5.69,0.04 7.79,-0.5 1.88,-0.49 2.64,-3.53 -1.21,-3.9 -10.86,-1.05 -10.74,-15.27 -1.12,-17.04zm-21.25 17.23c0,2.78 -0.74,3.81 2.13,3.85 1.78,0.02 4.07,-0.38 5.36,0.59 1.25,0.94 3.47,6.02 -3.67,6 -10.65,-0.01 -10.44,-4.16 -10.44,-13.9 0,-9.77 -0.21,-13.9 10.44,-13.91 2.3,-0.01 3.69,0.05 4.59,1.71 0.89,1.63 0.14,3.48 -0.92,4.29 -1.38,1.04 -3.81,0.52 -5.7,0.6 -2.5,0.1 -1.79,1.37 -1.79,3.84 3.29,0.67 7.56,-0.77 7.56,3.47 0,4.22 -4.27,2.79 -7.56,3.46zm41.63 -10.75c-1.82,0 -3.25,0.27 -4.43,-0.95 -0.89,-0.92 -1.34,-2.55 -0.57,-3.95 1.35,-2.46 5.29,-1.72 8.56,-1.72 3.51,0 7.41,-0.76 8.32,2.28 0.47,1.57 -0.2,3.02 -1.06,3.66 -1.07,0.79 -2.69,0.62 -4.2,0.77 0,4.05 0,8.11 0,12.16 0,3.5 0.9,9.01 -3.38,8.9 -4.19,-0.12 -3.24,-5.11 -3.24,-8.9 0,-4.08 0,-8.16 0,-12.25zm-51.97 -4.69c0.71,1.6 -0.01,3.15 -0.86,3.91 -1.14,1.01 -2.6,0.78 -4.26,0.78 0,4.09 0,8.17 0,12.25 0,3.83 0.94,8.78 -3.25,8.9 -4.27,0.11 -3.37,-5.4 -3.37,-8.9 0,-4.06 0,-8.11 0,-12.16 -1.7,-0.17 -3.31,0.04 -4.38,-0.92 -0.85,-0.75 -1.37,-2.27 -0.8,-3.75 1.04,-2.75 4.8,-2.04 8.24,-2.04 3.3,0 7.46,-0.79 8.68,1.93zm56.27 86.78c0.85,-1.93 2.22,-3.94 3.31,-5.88 1.15,-2.06 2.13,-3.71 3.27,-5.67 6.57,-11.34 13.19,-23.32 19.88,-34.39 1.43,-2.37 0.93,-5.07 0.93,-8.34l0 -26.81c0,-6.32 1.2,-13.73 -2.97,-15.23 -2.2,-0.79 -93.3,-0.33 -107.91,-0.33 -8.13,0 -9.6,-0.23 -9.59,8.28 0.01,12.93 -0.45,141.87 0.18,144.47 1.2,4.99 9.54,3.47 14.71,3.47 30.01,0 60.02,0 90.02,0 6.33,0 13.73,1.2 15.23,-2.97 0.51,-1.44 0.62,-49.25 0.25,-53.62 -0.84,1.04 -2,3.31 -2.82,4.71 -0.94,1.59 -1.7,2.94 -2.65,4.63 -1.75,3.12 -3.58,6.23 -5.33,9.24 -2.6,4.48 -3.37,4.62 -7.14,7.42 -2.87,2.12 -5.3,4.24 -8.2,6.36 -2.69,1.96 -6.71,6.02 -9.11,5.61 -4.25,-0.72 -2.23,-7.15 -1.74,-10.83 0.57,-4.3 1.14,-8.55 1.73,-12.87 0.91,-6.71 1.62,-5.74 3.94,-10.63 -3.4,-0.02 -44.61,0.56 -46.64,-0.41 -1.31,-0.64 -2.17,-2.55 -1.31,-4.46 1.28,-2.81 8.26,-1.75 11.83,-1.75 13.38,0 26.75,0 40.13,0z"/>
   <path class="fil2" d="M99.37 117.55l2.46 1.63c0.85,0.48 1.68,0.99 2.52,1.46 1.78,1.01 3.64,2.32 5.42,2.95l41.91 -72.81c-1.27,-1.09 -8.75,-5.34 -10.19,-5.91l-42.12 72.68z"/>
   <path class="fil0" d="M26.8 64.33l6.62 -0.04 0 6.62 -5.45 0.03 -1.17 -0.18 0 -6.43zm-4.35 -6.38c-3.05,1.24 -2.27,3.93 -2.27,7.67 0,11.94 -1.23,11.92 7.79,11.91 1.95,0 8.35,0.25 9.76,-0.18 2.9,-0.88 2.31,-4.6 2.31,-7.76 0,-12.26 1.11,-11.92 -8.1,-11.92 -2.11,0 -7.96,-0.34 -9.49,0.28z"/>
   <path class="fil0" d="M26.8 133.17l6.62 -0.03 0 6.62 -5.45 0.03 -1.17 -0.19 0 -6.43zm-4.35 -6.38c-3.05,1.24 -2.27,3.93 -2.27,7.67 0,11.94 -1.23,11.92 7.79,11.92 12.02,-0.01 12.07,1.29 12.07,-7.95 0,-12.26 1.11,-11.91 -8.1,-11.91 -2.11,0 -7.96,-0.34 -9.49,0.27z"/>
   <path class="fil0" d="M26.8 98.75l6.62 -0.03 0 6.62 -5.45 0.02 -1.17 -0.18 0 -6.43zm-4.35 -6.38c-3.05,1.24 -2.27,3.93 -2.27,7.67 0,11.94 -1.23,11.92 7.79,11.91 12.02,0 12.07,1.3 12.07,-7.94 0,-12.26 1.11,-11.92 -8.1,-11.91 -2.11,0 -7.96,-0.35 -9.49,0.27z"/>
   <path class="fil0" d="M48.85 71.15c-1.74,0.59 -2.87,2.12 -2.02,4.39 0.77,2.09 2.62,2.01 5.3,2 7.26,-0.04 40.56,0.45 42.86,-0.19 2.31,-0.64 5.33,-6.48 -3.47,-6.44 -6.76,0.03 -40.95,-0.34 -42.67,0.24z"/>
   <path class="fil0" d="M74.2 16.77c-9.62,1.77 -9.74,15.99 1.12,17.04 3.85,0.37 3.09,3.41 1.21,3.9 -2.1,0.54 -5.79,-0.44 -7.79,0.5 -1.9,0.89 -2.25,4.06 -0.61,5.45 1.51,1.27 5.23,0.83 7.51,0.78 11.43,-0.27 11.62,-14.94 2.41,-16.96 -1.65,-0.36 -5.75,-0.19 -4.09,-3.22 1.02,-1.88 4.92,-0.47 6.94,-1.36 3.2,-1.42 3.33,-7.96 -6.7,-6.13z"/>
   <path class="fil0" d="M52.95 34c3.29,-0.67 7.56,0.76 7.56,-3.46 0,-4.24 -4.27,-2.8 -7.56,-3.47 0,-2.47 -0.71,-3.74 1.79,-3.84 1.89,-0.08 4.32,0.44 5.7,-0.6 1.06,-0.81 1.81,-2.66 0.92,-4.29 -0.9,-1.66 -2.29,-1.72 -4.59,-1.71 -10.65,0.01 -10.44,4.14 -10.44,13.91 0,9.74 -0.21,13.89 10.44,13.9 7.14,0.02 4.92,-5.06 3.67,-6 -1.29,-0.97 -3.58,-0.57 -5.36,-0.59 -2.87,-0.04 -2.13,-1.07 -2.13,-3.85z"/>
   <path class="fil0" d="M30.87 23.34c0,4.05 0,8.1 0,12.16 0,3.5 -0.9,9.01 3.37,8.9 4.19,-0.12 3.25,-5.07 3.25,-8.9 0,-4.08 0,-8.16 0,-12.25 1.66,0 3.12,0.23 4.26,-0.78 0.85,-0.76 1.57,-2.31 0.86,-3.91 -1.22,-2.72 -5.38,-1.93 -8.68,-1.93 -3.44,0 -7.2,-0.71 -8.24,2.04 -0.57,1.48 -0.05,3 0.8,3.75 1.07,0.96 2.68,0.75 4.38,0.92z"/>
   <path class="fil0" d="M94.58 23.25c0,4.09 0,8.17 0,12.25 0,3.79 -0.95,8.78 3.24,8.9 4.28,0.11 3.38,-5.4 3.38,-8.9 0,-4.05 0,-8.11 0,-12.16 1.51,-0.15 3.13,0.02 4.2,-0.77 0.86,-0.64 1.53,-2.09 1.06,-3.66 -0.91,-3.04 -4.81,-2.28 -8.32,-2.28 -3.27,0 -7.21,-0.74 -8.56,1.72 -0.77,1.4 -0.32,3.03 0.57,3.95 1.18,1.22 2.61,0.95 4.43,0.95z"/>
   <path class="fil0" d="M48.85 139.99c-3.14,1.07 -2.86,5.12 -0.39,6.08 1.68,0.65 30.16,0.37 30.94,0.1 2.74,-0.95 2.77,-4.98 0.23,-6.12 -1.54,-0.68 -29.94,-0.34 -30.78,-0.06z"/>
   <path class="fil3" d="M144.82 39.11l10.16 5.77c7.76,-10.42 -6.67,-16.77 -10.16,-5.77z"/>
   <path class="fil2" d="M95.9 135.34c1.12,-0.46 3.33,-2.45 4.47,-3.28 1.25,-0.91 3.59,-2.59 4.37,-3.6l-7.35 -4.17 -1.49 11.05z"/>
   <polygon class="fil4" points="26.8,105.18 27.97,105.36 33.42,105.34 33.42,98.72 26.8,98.75 "/>
   <polygon class="fil3" points="26.8,70.76 27.97,70.94 33.42,70.91 33.42,64.29 26.8,64.33 "/>
   <polygon class="fil4" points="26.8,139.6 27.97,139.79 33.42,139.76 33.42,133.14 26.8,133.17 "/>
   <path class="fil0" d="M106.35 71.1c-4.19,1.38 -2.28,7.38 1.86,6.26 4.22,-1.13 2.23,-7.62 -1.86,-6.26z"/>
  </g>
 </g>
</svg>
